<?xml version="1.0" standalone="no"?>
<!DOCTYPE svg PUBLIC "-//W3C//DTD SVG 1.1//EN" "http://www.w3.org/Graphics/SVG/1.1/DTD/svg11.dtd" >
<svg xmlns="http://www.w3.org/2000/svg">
<metadata>Generated by IcoMoon</metadata>
<defs>
<font id="icomoon" horiz-adv-x="1024">
<font-face units-per-em="1024" ascent="960" descent="-64" />
<missing-glyph horiz-adv-x="1024" />
<glyph unicode="&#x20;" horiz-adv-x="512" d="" />
<glyph unicode="&#xe900;" glyph-name="Untitled-5" d="M1017.181 464.431l-179.363 179.386v246.365c0 12.847-10.426 23.273-23.273 23.273h-139.636c-12.847 0-23.273-10.426-23.273-23.273v-60.183l-123.183 123.159c-4.212 4.236-10.031 6.842-16.454 6.842s-12.241-2.607-16.454-6.842l-488.727-488.727c-4.212-4.212-6.819-10.007-6.819-16.431 0-12.87 10.426-23.273 23.273-23.273 6.423 0 12.241 2.583 16.454 6.819l99.91 99.91v-572.183c0-12.87 10.426-23.273 23.273-23.273h698.182c12.847 0 23.273 10.403 23.273 23.273v572.183l99.91-99.887c4.236-4.236 10.054-6.842 16.454-6.842 12.847 0 23.273 10.403 23.273 23.273 0 6.423-2.583 12.218-6.819 16.431zM698.182 866.909h93.091v-176.547l-93.091 93.091v83.456zM372.364-17.455h-186.182v46.545h186.182v-46.545zM605.091-17.455h-186.182v372.364h186.182v-372.364zM837.818-17.455h-186.182v46.545h186.182v-46.545zM837.818 75.636h-186.182v302.545c0 12.823-10.426 23.273-23.273 23.273h-232.727c-12.847 0-23.273-10.449-23.273-23.273v-302.545h-186.182v502.365l325.818 325.818 325.818-325.818v-502.365zM535.273 122.182c12.847 0 23.273 10.403 23.273 23.273 0 12.823-10.426 23.273-23.273 23.273s-23.273-10.449-23.273-23.273c0-12.87 10.426-23.273 23.273-23.273z" />
<glyph unicode="&#xe901;" glyph-name="add-basket" d="M395.636 750.545h93.091v-93.091c0-12.87 10.426-23.273 23.273-23.273s23.273 10.403 23.273 23.273v93.091h93.091c12.847 0 23.273 10.403 23.273 23.273s-10.426 23.273-23.273 23.273h-93.091v93.091c0 12.87-10.426 23.273-23.273 23.273s-23.273-10.403-23.273-23.273v-93.091h-93.091c-12.847 0-23.273-10.403-23.273-23.273s10.426-23.273 23.273-23.273zM977.455 541.091h-930.909c-25.693 0-46.545-20.852-46.545-46.545v-46.545c0-25.693 20.852-46.545 46.545-46.545h9.309l84.48-401.268 0.419 0.093c2.56-10.1 11.287-17.734 22.156-17.734h698.182c10.892 0 19.619 7.633 22.156 17.734l0.442-0.093 84.48 401.268h9.286c25.693 0 46.545 20.852 46.545 46.545v46.545c0 25.693-20.852 46.545-46.545 46.545zM103.377 401.455h159.977l14.685-93.091h-155.043l-19.619 93.091zM132.817 261.818h152.599l14.685-93.091h-147.735l-19.549 93.091zM181.783 29.091l-19.572 93.091h145.245l14.708-93.091h-140.381zM488.727 29.091h-120.041l-14.708 93.091h134.749v-93.091zM488.727 168.727h-142.080l-14.685 93.091h156.765v-93.091zM488.727 308.364h-164.143l-14.685 93.091h178.828v-93.091zM655.313 29.091h-120.041v93.091h134.749l-14.708-93.091zM677.353 168.727h-142.080v93.091h156.788l-14.708-93.091zM535.273 308.364v93.091h178.851l-14.685-93.091h-164.166zM842.24 29.091h-140.381l14.708 93.091h145.245l-19.572-93.091zM871.633 168.727h-147.735l14.708 93.091h152.599l-19.572-93.091zM901.027 308.364h-155.043l14.685 93.091h159.977l-19.619-93.091zM977.455 448h-930.909v46.545h930.909v-46.545z" />
<glyph unicode="&#xe902;" glyph-name="addkart" d="M512 750.545h93.091v-93.091c0-12.87 10.426-23.273 23.273-23.273 12.87 0 23.273 10.403 23.273 23.273v93.091h93.091c12.87 0 23.273 10.403 23.273 23.273s-10.403 23.273-23.273 23.273h-93.091v93.091c0 12.847-10.403 23.273-23.273 23.273-12.847 0-23.273-10.426-23.273-23.273v-93.091h-93.091c-12.847 0-23.273-10.403-23.273-23.273s10.426-23.273 23.273-23.273zM930.095 139.846l0.163-0.023 93.091 418.909-0.465 0.093c0.489 1.792 1.117 3.584 1.117 5.539 0 12.87-10.403 23.273-23.273 23.273h-746.147l-33.001 123.043-0.349-0.093c-2.863 9.542-11.404 16.687-21.946 16.687h-176.012c-12.847 0-23.273-10.426-23.273-23.273 0-12.87 10.426-23.273 23.273-23.273h158.161l145.361-541.952c2.025-6.563 6.772-11.892 13.009-14.615-8.681-14.15-13.987-30.673-13.987-48.524 0-51.433 41.681-93.091 93.091-93.091s93.091 41.658 93.091 93.091c0 17.036-4.911 32.791-12.893 46.545h258.537c-7.959-13.754-12.916-29.51-12.916-46.545 0-51.433 41.681-93.091 93.091-93.091s93.091 41.658 93.091 93.091c0 17.85-5.26 34.374-13.987 48.524 6.563 2.839 11.404 8.657 13.172 15.686zM835.398 541.091h136.355l-20.713-93.091h-125.999l10.356 93.091zM267.078 541.091h154.298l10.356-93.091h-139.683l-24.972 93.091zM329.472 308.364l-24.948 93.091h132.375l10.356-93.091h-117.783zM341.969 261.818h110.429l10.333-93.091h-95.791l-24.972 93.091zM418.909 29.091c-25.693 0-46.545 20.852-46.545 46.545s20.852 46.545 46.545 46.545c25.716 0 46.545-20.852 46.545-46.545s-20.829-46.545-46.545-46.545zM605.091 168.727h-95.511l-10.333 93.091h105.844v-93.091zM605.091 308.364h-111.034l-10.356 93.091h121.391v-93.091zM605.091 448h-126.557l-10.356 93.091h136.913v-93.091zM747.171 168.727h-95.535v93.091h105.914l-10.38-93.091zM762.694 308.364h-111.057v93.091h121.437l-10.38-93.091zM778.217 448h-126.58v93.091h136.937l-10.356-93.091zM837.818 29.091c-25.693 0-46.545 20.852-46.545 46.545s20.852 46.545 46.545 46.545c25.716 0 46.545-20.852 46.545-46.545s-20.829-46.545-46.545-46.545zM888.972 168.727h-94.976l10.356 93.091h105.309l-20.689-93.091zM809.519 308.364l10.356 93.091h120.832l-20.713-93.091h-110.476z" />
<glyph unicode="&#xe903;" glyph-name="ai" d="M460.753 399.825l-52.736-184.553h40.425l12.288 47.36h49.408l13.335-47.36h41.984l-53.527 184.553h-51.177zM466.385 293.818l10.217 39.191c2.816 10.682 5.353 24.646 7.936 35.584h0.512c2.537-10.961 5.632-24.646 8.704-35.584l10.752-39.191h-38.121zM698.438 959.953h-512c-51.409 0-93.091-41.658-93.091-93.091v-837.772c0-51.456 41.681-93.137 93.091-93.137h651.636c51.409 0 93.091 41.681 93.091 93.137v674.863l-232.727 256zM884.62 29.091c0-25.716-20.852-46.545-46.545-46.545h-651.636c-25.693 0-46.545 20.829-46.545 46.545v837.772c0 25.693 20.852 46.545 46.545 46.545h418.909v-232.727c0-25.693 20.852-46.522 46.545-46.522h232.727v-605.068zM651.892 680.681v232.727h23.273l209.455-232.727h-232.727zM583.447 215.273h39.191v184.553h-39.191v-184.553z" />
<glyph unicode="&#xe904;" glyph-name="alert" d="M930.909 238.545c0 162.909-186.182 162.909-186.182 395.636 0 96.14-58.321 178.641-141.498 214.132 1.21 6.004 1.862 12.241 1.862 18.595 0 51.409-41.681 93.091-93.091 93.091s-93.091-41.681-93.091-93.091c0-6.353 0.652-12.591 1.862-18.595-83.177-35.491-141.498-117.993-141.498-214.132 0-232.727-186.182-232.727-186.182-395.636 0-71.005 116.992-131.235 279.924-153.553-0.233-3.095-0.652-6.167-0.652-9.356 0-77.126 62.534-139.636 139.636-139.636s139.636 62.511 139.636 139.636c0 3.188-0.419 6.26-0.652 9.356 162.932 22.319 279.924 82.548 279.924 153.553zM512 913.455c25.693 0 46.545-20.852 46.545-46.545s-20.852-46.545-46.545-46.545-46.545 20.852-46.545 46.545 20.852 46.545 46.545 46.545zM207.43 365.009c52.759 55.133 118.388 123.788 118.388 269.172 0 77.801 48.012 144.5 115.898 172.265 17.082-19.805 42.054-32.628 70.284-32.628s53.201 12.823 70.26 32.628c67.91-27.764 115.921-94.464 115.921-172.265 0-145.385 65.629-214.039 118.388-269.172 10.054-10.543 19.386-20.294 27.695-29.952-44.567-42.426-176.128-73.239-332.265-73.239-155.974 0-287.697 30.72-332.404 73.076 8.355 9.705 17.711 19.526 27.834 30.115zM512-17.455c-51.409 0-93.091 41.681-93.091 93.091 0 1.42 0.303 2.723 0.372 4.143 29.859-2.653 60.812-4.143 92.719-4.143s62.86 1.489 92.719 4.143c0.070-1.42 0.372-2.723 0.372-4.143 0-51.409-41.681-93.091-93.091-93.091zM512 122.182c-240.966 0-372.364 76.87-372.364 116.364 0 25.041 6.004 44.73 15.965 62.673 63.767-50.781 199.145-85.946 356.399-85.946 157.324 0 292.631 35.212 356.352 86.039 9.961-17.943 16.012-37.679 16.012-62.767 0-39.494-131.444-116.364-372.364-116.364z" />
<glyph unicode="&#xe905;" glyph-name="android-gellybean" d="M442.182 796.556c-12.87 0-23.273-10.426-23.273-23.273 0-12.87 10.403-23.273 23.273-23.273s23.273 10.403 23.273 23.273c0 12.847-10.403 23.273-23.273 23.273zM581.818 796.556c-12.87 0-23.273-10.426-23.273-23.273 0-12.87 10.403-23.273 23.273-23.273s23.273 10.403 23.273 23.273c0 12.847-10.403 23.273-23.273 23.273zM814.545 703.465c-8.239 0-15.965-1.676-23.273-4.329v4.329h-1.839c-8.657 72.378-57.065 134.982-126.72 172.428l31.558 47.383-0.372 0.233c2.49 3.677 4.282 7.889 4.282 12.684 0 12.847-10.403 23.273-23.273 23.273-8.076 0-14.825-4.375-18.991-10.589l-0.372 0.233-36.166-54.225c-33.071 11.52-69.26 18.036-107.38 18.036s-74.31-6.516-107.38-18.036l-36.166 54.225-0.372-0.233c-4.189 6.214-10.938 10.589-18.991 10.589-12.87 0-23.273-10.426-23.273-23.273 0-4.794 1.792-9.007 4.282-12.684l-0.372-0.233 31.581-47.383c-69.679-37.446-118.086-100.049-126.743-172.428h-1.839v-4.329c-7.308 2.63-15.057 4.329-23.273 4.329-38.54 0-69.818-31.279-69.818-69.818v-325.818c0-38.54 31.279-69.818 69.818-69.818 8.215 0 15.965 1.676 23.273 4.282v-74.1c0-25.693 20.852-46.545 46.545-46.545h46.545v-116.364c0-38.54 31.279-69.818 69.818-69.818s69.818 31.279 69.818 69.818v116.364h93.091v-116.364c0-38.54 31.255-69.818 69.818-69.818s69.818 31.279 69.818 69.818v116.364h46.545c25.693 0 46.545 20.852 46.545 46.545v74.077c7.308-2.583 15.034-4.282 23.273-4.282 38.563 0 69.818 31.279 69.818 69.818v325.818c0 38.563-31.255 69.841-69.818 69.841zM232.727 307.828c0-12.823-10.403-23.273-23.273-23.273s-23.273 10.449-23.273 23.273v325.818c0 12.847 10.403 23.273 23.273 23.273s23.273-10.426 23.273-23.273v-325.818zM512 866.374c118.668 0 216.367-71.145 230.726-162.909h-461.452c14.359 91.764 112.058 162.909 230.726 162.909zM418.909 5.283c0-12.87-10.403-23.273-23.273-23.273s-23.273 10.403-23.273 23.273v116.364h46.545v-116.364zM651.636 5.283c0-12.87-10.403-23.273-23.273-23.273s-23.273 10.403-23.273 23.273v116.364h46.545v-116.364zM744.727 168.192h-465.455v488.727h465.455v-488.727zM837.818 307.828c0-12.823-10.403-23.273-23.273-23.273s-23.273 10.449-23.273 23.273v325.818c0 12.847 10.403 23.273 23.273 23.273s23.273-10.426 23.273-23.273v-325.818z" />
<glyph unicode="&#xe906;" glyph-name="angle-down" d="M954.182 680.727c-6.423 0-12.241-2.607-16.454-6.819l-425.728-403.316-425.728 403.316c-4.212 4.212-10.031 6.819-16.454 6.819-12.87 0-23.273-10.403-23.273-23.273 0-6.423 2.583-12.241 6.819-16.454l442.182-418.909c4.212-4.236 10.031-6.819 16.454-6.819s12.241 2.583 16.454 6.819l442.182 418.909c4.236 4.212 6.819 10.031 6.819 16.454 0 12.87-10.403 23.273-23.273 23.273z" />
<glyph unicode="&#xe907;" glyph-name="angle-down-circle" d="M768 541.091c-6.4 0-12.218-2.607-16.477-6.819l-239.523-217.763-239.546 217.763c-4.236 4.212-10.054 6.819-16.454 6.819-12.847 0-23.273-10.403-23.273-23.273 0-6.423 2.607-12.241 6.819-16.454l256-232.727c4.236-4.236 10.054-6.819 16.454-6.819s12.218 2.583 16.454 6.819l256 232.727c4.236 4.212 6.819 10.031 6.819 16.454 0 12.87-10.426 23.273-23.273 23.273zM512 960c-282.764 0-512-229.236-512-512s229.236-512 512-512c282.764 0 512 229.236 512 512s-229.236 512-512 512zM512-17.455c-257.071 0-465.455 208.384-465.455 465.455s208.384 465.455 465.455 465.455c257.047 0 465.455-208.384 465.455-465.455s-208.407-465.455-465.455-465.455z" />
<glyph unicode="&#xe908;" glyph-name="angle-down-square" d="M768 587.636c-6.028 0-11.404-2.42-15.523-6.191l-0.14 0.14-240.337-218.484-240.337 218.484-0.14-0.14c-4.119 3.77-9.495 6.191-15.523 6.191-12.847 0-23.273-10.403-23.273-23.273 0-6.819 3.049-12.823 7.75-17.082l-0.14-0.14 256-232.727 0.14 0.14c4.119-3.77 9.495-6.191 15.523-6.191s11.404 2.42 15.523 6.191l0.14-0.14 256 232.727-0.14 0.14c4.701 4.259 7.75 10.263 7.75 17.082 0 12.87-10.426 23.273-23.273 23.273zM930.909 960h-837.818c-51.409 0-93.091-41.681-93.091-93.091v-837.818c0-51.409 41.681-93.091 93.091-93.091h837.818c51.409 0 93.091 41.681 93.091 93.091v837.818c0 51.409-41.681 93.091-93.091 93.091zM977.455 29.091c0-25.693-20.852-46.545-46.545-46.545h-837.818c-25.693 0-46.545 20.852-46.545 46.545v837.818c0 25.693 20.852 46.545 46.545 46.545h837.818c25.693 0 46.545-20.852 46.545-46.545v-837.818z" />
<glyph unicode="&#xe909;" glyph-name="angle-left" d="M334.592 448l403.316 425.728c4.236 4.212 6.819 10.031 6.819 16.454 0 12.87-10.403 23.273-23.273 23.273-6.423 0-12.218-2.607-16.454-6.819l-418.909-442.182c-4.212-4.236-6.819-10.054-6.819-16.454 0-6.423 2.583-12.241 6.819-16.454l418.909-442.182c4.236-4.236 10.031-6.819 16.454-6.819 12.87 0 23.273 10.403 23.273 23.273 0 6.4-2.583 12.218-6.819 16.454l-403.316 425.728z" />
<glyph unicode="&#xe90a;" glyph-name="angle-left-circle" d="M605.091 704c0 12.847-10.426 23.273-23.273 23.273-6.4 0-12.218-2.607-16.454-6.819l-232.727-256c-4.236-4.236-6.819-10.054-6.819-16.454 0-6.423 2.583-12.241 6.819-16.454l232.727-256c4.236-4.236 10.054-6.819 16.454-6.819 12.847 0 23.273 10.403 23.273 23.273 0 6.4-2.583 12.218-6.819 16.454l-217.763 239.546 217.763 239.546c4.236 4.212 6.819 10.031 6.819 16.454zM512 960c-282.764 0-512-229.236-512-512s229.236-512 512-512c282.764 0 512 229.236 512 512s-229.236 512-512 512zM512-17.455c-257.071 0-465.455 208.384-465.455 465.455 0 257.047 208.384 465.455 465.455 465.455s465.455-208.407 465.455-465.455c0-257.071-208.384-465.455-465.455-465.455z" />
<glyph unicode="&#xe90b;" glyph-name="angle-left-square" d="M581.818 727.273c-6.842 0-12.823-3.072-17.082-7.75l-0.14 0.116-232.727-255.977 0.14-0.14c-3.77-4.119-6.191-9.495-6.191-15.523s2.42-11.404 6.191-15.523l-0.14-0.116 232.727-256.023 0.14 0.14c4.259-4.701 10.24-7.75 17.082-7.75 12.847 0 23.273 10.403 23.273 23.273 0 6.028-2.42 11.38-6.191 15.523l0.14 0.14-218.484 240.337 218.508 240.337-0.14 0.116c3.747 4.143 6.167 9.519 6.167 15.546 0 12.87-10.426 23.273-23.273 23.273zM930.909 960h-837.818c-51.409 0-93.091-41.681-93.091-93.091v-837.818c0-51.409 41.681-93.091 93.091-93.091h837.818c51.409 0 93.091 41.681 93.091 93.091v837.818c0 51.409-41.681 93.091-93.091 93.091zM977.455 29.091c0-25.693-20.852-46.545-46.545-46.545h-837.818c-25.693 0-46.545 20.852-46.545 46.545v837.818c0 25.693 20.852 46.545 46.545 46.545h837.818c25.693 0 46.545-20.852 46.545-46.545v-837.818z" />
<glyph unicode="&#xe90c;" glyph-name="angle-right" d="M737.908 464.454l-418.909 442.182c-4.212 4.212-10.031 6.819-16.454 6.819-12.87 0-23.273-10.403-23.273-23.273 0-6.423 2.607-12.241 6.819-16.454l403.316-425.728-403.316-425.728c-4.212-4.236-6.819-10.054-6.819-16.454 0-12.87 10.403-23.273 23.273-23.273 6.423 0 12.241 2.583 16.454 6.819l418.909 442.182c4.212 4.212 6.819 10.031 6.819 16.454s-2.607 12.218-6.819 16.454z" />
<glyph unicode="&#xe90d;" glyph-name="angle-rightt-circle" d="M458.636 720.454c-4.236 4.212-10.054 6.819-16.454 6.819-12.847 0-23.273-10.426-23.273-23.273 0-6.423 2.583-12.241 6.819-16.454l217.763-239.546-217.763-239.546c-4.236-4.236-6.819-10.054-6.819-16.454 0-12.87 10.426-23.273 23.273-23.273 6.4 0 12.218 2.583 16.454 6.819l232.727 256c4.236 4.212 6.819 10.031 6.819 16.454 0 6.4-2.583 12.218-6.819 16.454l-232.727 256zM512 960c-282.764 0-512-229.236-512-512s229.236-512 512-512c282.764 0 512 229.236 512 512s-229.236 512-512 512zM512-17.455c-257.071 0-465.455 208.384-465.455 465.455 0 257.047 208.384 465.455 465.455 465.455s465.455-208.407 465.455-465.455c0-257.071-208.384-465.455-465.455-465.455z" />
<glyph unicode="&#xe90e;" glyph-name="angle-rightt-square" d="M691.991 463.523l0.14 0.14-232.727 255.977-0.14-0.116c-4.259 4.678-10.263 7.75-17.082 7.75-12.847 0-23.273-10.403-23.273-23.273 0-6.028 2.42-11.404 6.191-15.546l-0.14-0.116 218.484-240.337-218.484-240.337 0.14-0.14c-3.77-4.143-6.191-9.495-6.191-15.523 0-12.87 10.426-23.273 23.273-23.273 6.819 0 12.823 3.049 17.082 7.75l0.14-0.14 232.727 256.023-0.14 0.116c3.77 4.119 6.191 9.495 6.191 15.523s-2.42 11.404-6.191 15.523zM930.909 960h-837.818c-51.409 0-93.091-41.681-93.091-93.091v-837.818c0-51.409 41.681-93.091 93.091-93.091h837.818c51.409 0 93.091 41.681 93.091 93.091v837.818c0 51.409-41.681 93.091-93.091 93.091zM977.455 29.091c0-25.693-20.852-46.545-46.545-46.545h-837.818c-25.693 0-46.545 20.852-46.545 46.545v837.818c0 25.693 20.852 46.545 46.545 46.545h837.818c25.693 0 46.545-20.852 46.545-46.545v-837.818z" />
<glyph unicode="&#xe90f;" glyph-name="angle-up" d="M970.636 254.999l-442.182 418.909c-4.212 4.212-10.031 6.819-16.454 6.819-6.4 0-12.241-2.607-16.454-6.819l-442.182-418.909c-4.236-4.236-6.819-10.031-6.819-16.454 0-12.87 10.403-23.273 23.273-23.273 6.423 0 12.241 2.583 16.454 6.819l425.728 403.316 425.728-403.316c4.212-4.236 10.031-6.819 16.454-6.819 12.87 0 23.273 10.403 23.273 23.273 0 6.423-2.583 12.218-6.819 16.454z" />
<glyph unicode="&#xe910;" glyph-name="angle-up-circle" d="M512 960c-282.764 0-512-229.236-512-512s229.236-512 512-512c282.764 0 512 229.236 512 512s-229.236 512-512 512zM512-17.455c-257.071 0-465.455 208.384-465.455 465.455s208.384 465.455 465.455 465.455c257.047 0 465.455-208.384 465.455-465.455s-208.407-465.455-465.455-465.455zM528.454 627.363c-4.236 4.236-10.054 6.819-16.454 6.819s-12.218-2.583-16.454-6.819l-256-232.727c-4.212-4.236-6.819-10.054-6.819-16.454 0-12.87 10.426-23.273 23.273-23.273 6.4 0 12.218 2.583 16.454 6.819l239.546 217.763 239.546-217.763c4.236-4.236 10.054-6.819 16.454-6.819 12.847 0 23.273 10.403 23.273 23.273 0 6.4-2.583 12.218-6.819 16.454l-256 232.727z" />
<glyph unicode="&#xe911;" glyph-name="angle-up-square" d="M930.909 960h-837.818c-51.409 0-93.091-41.681-93.091-93.091v-837.818c0-51.409 41.681-93.091 93.091-93.091h837.818c51.409 0 93.091 41.681 93.091 93.091v837.818c0 51.409-41.681 93.091-93.091 93.091zM977.455 29.091c0-25.693-20.829-46.545-46.545-46.545h-837.818c-25.693 0-46.545 20.852-46.545 46.545v837.818c0 25.693 20.852 46.545 46.545 46.545h837.818c25.716 0 46.545-20.852 46.545-46.545v-837.818zM783.663 348.858l-256 232.727-0.116-0.163c-4.143 3.77-9.519 6.214-15.546 6.214-6.051 0-11.404-2.444-15.523-6.214l-0.163 0.163-256-232.727 0.14-0.163c-4.678-4.236-7.727-10.24-7.727-17.059 0-12.87 10.426-23.273 23.273-23.273 6.028 0 11.404 2.42 15.546 6.191l0.116-0.14 240.337 218.484 240.314-218.508 0.163 0.14c4.119-3.747 9.472-6.167 15.523-6.167 12.847 0 23.273 10.403 23.273 23.273 0 6.819-3.049 12.823-7.75 17.059l0.14 0.163z" />
<glyph unicode="&#xe912;" glyph-name="arrow-down" d="M744.727 215.273c-6.4 0-12.218-2.607-16.454-6.819l-193.001-193.001v921.274c0 12.87-10.426 23.273-23.273 23.273s-23.273-10.403-23.273-23.273v-921.274l-193.001 193.001c-4.236 4.212-10.054 6.819-16.454 6.819-12.847 0-23.273-10.403-23.273-23.273 0-6.423 2.583-12.241 6.819-16.454l232.727-232.727c4.236-4.236 10.054-6.819 16.454-6.819s12.218 2.583 16.454 6.819l232.727 232.727c4.236 4.212 6.819 10.031 6.819 16.454 0 12.87-10.426 23.273-23.273 23.273z" />
<glyph unicode="&#xe913;" glyph-name="arrow-down-circle" d="M325.818 494.545c-12.87 0-23.273-10.403-23.273-23.273 0-6.423 2.583-12.241 6.819-16.454l186.182-186.182c4.212-4.236 10.031-6.819 16.454-6.819 6.447 0 12.265 2.583 16.454 6.819l186.182 186.182c4.212 4.212 6.819 10.031 6.819 16.454 0 12.87-10.426 23.273-23.273 23.273-6.423 0-12.241-2.607-16.454-6.819l-146.455-146.455v595.456c0 12.87-10.426 23.273-23.273 23.273-12.87 0-23.273-10.403-23.273-23.273v-595.456l-146.455 146.455c-4.189 4.212-10.007 6.819-16.454 6.819zM615.028 948.852c-3.025 1.443-6.353 2.42-9.937 2.42-12.87 0-23.273-10.426-23.273-23.273 0-12.87 10.403-23.273 23.273-23.273v-0.605c212.457-43.148 372.364-230.935 372.364-456.122 0-257.071-208.384-465.455-465.455-465.455s-465.455 208.384-465.455 465.455c0 225.187 159.907 412.975 372.364 456.122v0.605c12.847 0 23.273 10.403 23.273 23.273 0 12.847-10.426 23.273-23.273 23.273-3.584 0-6.912-0.977-9.961-2.42-233.239-47.756-408.948-253.487-408.948-500.852 0-282.764 229.236-512 512-512s512 229.236 512 512c0 247.366-175.732 453.097-408.972 500.852z" />
<glyph unicode="&#xe914;" glyph-name="arrow-in" d="M1000.727 960h-837.818c-12.847 0-23.273-10.403-23.273-23.273v-349.091c0-12.87 10.426-23.273 23.273-23.273s23.273 10.403 23.273 23.273v325.818h791.273v-930.909h-791.273v325.818c0 12.847-10.426 23.273-23.273 23.273s-23.273-10.426-23.273-23.273v-349.091c0-12.87 10.426-23.273 23.273-23.273h837.818c12.847 0 23.273 10.403 23.273 23.273v977.455c0 12.87-10.426 23.273-23.273 23.273zM611.91 278.272c-4.236-4.212-6.819-10.054-6.819-16.454 0-12.87 10.426-23.273 23.273-23.273 6.4 0 12.218 2.583 16.454 6.819l186.182 186.182c4.236 4.212 6.819 10.031 6.819 16.454 0 6.4-2.583 12.218-6.819 16.454l-186.182 186.182c-4.236 4.212-10.054 6.819-16.454 6.819-12.847 0-23.273-10.403-23.273-23.273 0-6.423 2.583-12.241 6.819-16.454l146.455-146.455h-735.092c-12.847 0-23.273-10.403-23.273-23.273s10.426-23.273 23.273-23.273h735.092l-146.455-146.455z" />
<glyph unicode="&#xe915;" glyph-name="arrow-in1" d="M861.091 331.636c-12.847 0-23.273-10.426-23.273-23.273v-325.818h-791.273v930.909h791.273v-325.818c0-12.87 10.426-23.273 23.273-23.273s23.273 10.403 23.273 23.273v349.091c0 12.87-10.426 23.273-23.273 23.273h-837.818c-12.847 0-23.273-10.403-23.273-23.273v-977.455c0-12.87 10.426-23.273 23.273-23.273h837.818c12.847 0 23.273 10.403 23.273 23.273v349.091c0 12.847-10.426 23.273-23.273 23.273zM1000.727 471.273h-735.069l146.432 146.455c4.236 4.212 6.819 10.031 6.819 16.454 0 12.87-10.426 23.273-23.273 23.273-6.4 0-12.218-2.607-16.454-6.819l-186.182-186.182c-4.212-4.236-6.819-10.054-6.819-16.454 0-6.423 2.607-12.241 6.819-16.454l186.182-186.182c4.236-4.236 10.054-6.819 16.454-6.819 12.847 0 23.273 10.403 23.273 23.273 0 6.4-2.583 12.218-6.819 16.454l-146.432 146.455h735.069c12.847 0 23.273 10.403 23.273 23.273s-10.426 23.273-23.273 23.273z" />
<glyph unicode="&#xe916;" glyph-name="arrow-left" d="M1000.727 471.273h-921.274l193.001 193.001c4.236 4.212 6.819 10.031 6.819 16.454 0 12.87-10.426 23.273-23.273 23.273-6.423 0-12.241-2.607-16.454-6.819l-232.727-232.727c-4.212-4.236-6.819-10.054-6.819-16.454 0-6.423 2.607-12.241 6.819-16.454l232.727-232.727c4.212-4.236 10.031-6.819 16.454-6.819 12.847 0 23.273 10.403 23.273 23.273 0 6.4-2.583 12.218-6.819 16.454l-193.001 193.001h921.274c12.847 0 23.273 10.403 23.273 23.273s-10.426 23.273-23.273 23.273z" />
<glyph unicode="&#xe917;" glyph-name="arrow-right" d="M1017.181 464.454l-232.727 232.727c-4.212 4.212-10.031 6.819-16.454 6.819-12.87 0-23.273-10.403-23.273-23.273 0-6.423 2.607-12.241 6.819-16.454l193.001-193.001h-921.274c-12.87 0-23.273-10.403-23.273-23.273s10.403-23.273 23.273-23.273h921.274l-193.001-193.001c-4.212-4.236-6.819-10.031-6.819-16.454 0-12.87 10.403-23.273 23.273-23.273 6.423 0 12.241 2.583 16.454 6.819l232.727 232.727c4.236 4.212 6.819 10.031 6.819 16.454s-2.583 12.218-6.819 16.454z" />
<glyph unicode="&#xe918;" glyph-name="arrow-up" d="M761.181 720.454l-232.727 232.727c-4.236 4.212-10.054 6.819-16.454 6.819s-12.218-2.607-16.454-6.819l-232.727-232.727c-4.236-4.212-6.819-10.031-6.819-16.454 0-12.87 10.426-23.273 23.273-23.273 6.4 0 12.218 2.583 16.454 6.819l193.001 193.001v-921.274c0-12.87 10.426-23.273 23.273-23.273s23.273 10.403 23.273 23.273v921.274l193.001-193.001c4.236-4.236 10.054-6.819 16.454-6.819 12.847 0 23.273 10.403 23.273 23.273 0 6.423-2.583 12.241-6.819 16.454z" />
<glyph unicode="&#xe919;" glyph-name="at" d="M958.79 196.329c-22.086-30.045-48.314-58.601-78.057-84.992-29.673-26.321-62.953-49.594-98.909-69.143-35.817-19.503-74.449-34.956-114.804-45.917-40.169-10.868-82.897-16.407-126.906-16.407-66.281 0-130.025 10.193-189.487 30.185-59.276 19.945-112.105 50.036-157.021 89.507-44.823 39.284-80.873 88.855-107.148 147.316s-39.587 127.279-39.587 204.567c0 64.372 12.591 125.207 37.399 180.899 24.855 55.761 59.741 105.193 103.727 146.874 44.009 41.751 96.628 75.124 156.509 99.165 59.857 24.064 125.673 36.259 195.607 36.259 62.255 0 121.041-9.402 174.755-28.044 53.504-18.618 100.212-44.963 138.775-78.383 38.47-33.35 69.12-74.077 91.020-120.972 21.83-46.871 32.931-99.025 32.931-154.996 0-49.617-9.169-96.489-27.206-139.334-18.129-43.008-41.146-80.64-68.282-111.825-27.066-31.092-57.158-55.994-89.391-73.961-31.767-17.78-62.441-26.717-91.136-26.717-17.455 0-30.417 3.328-38.54 9.914-8.076 6.493-12.8 15.127-14.452 26.461-1.769 12.172-0.372 26.903 4.236 43.776 4.724 17.501 11.497 36.538 20.201 56.762l167.843 412.998h-49.897l-30.883-80.524c-14.732 30.976-38.819 55.994-71.82 74.519-38.33 21.551-82.269 32.465-130.537 32.465-53.225 0-102.609-13.289-146.874-39.494-43.823-25.996-81.711-59.764-112.593-100.399-30.72-40.425-54.854-85.015-71.727-132.515-16.919-47.593-25.46-94.255-25.46-138.659 0-28.905 5.399-56.553 16.058-82.036 10.659-25.553 25.344-48.012 43.66-66.769 18.362-18.874 40.541-34.048 65.885-45.103 55.715-24.32 123.345-20.689 190.441 1.14 31.232 10.1 59.601 29.044 84.689 56.367 1.257-18.548 8.774-34.42 22.551-47.453 18.735-17.78 43.706-26.81 74.287-26.81 36.538 0 74.752 10.682 113.524 31.721 38.4 20.829 73.798 49.594 105.193 85.457 31.279 35.77 57.228 78.057 77.103 125.626 19.898 47.709 30.022 99.677 30.022 154.415 0 65.071-12.893 124.905-38.307 177.757-25.367 52.876-60.463 98.374-104.262 135.215-43.753 36.748-95.581 65.396-154.042 85.132-58.345 19.619-121.53 29.626-187.741 29.626-73.169 0-143.36-12.87-208.663-38.191-65.303-25.344-123.299-61.044-172.311-106.193-49.059-45.103-88.273-99.212-116.527-160.768-28.3-61.673-42.636-130.118-42.636-203.427 0-89.065 15.849-167.145 47.104-232.099s72.774-119.087 123.415-161.001c50.548-41.821 108.847-73.053 173.289-92.765 64.116-19.689 130.188-29.626 196.329-29.626 45.545 0 91.485 5.958 136.541 17.641 44.94 11.729 88.297 28.625 128.838 50.223 40.588 21.597 78.685 48.175 113.292 79.127 34.723 31.046 64.396 65.862 88.204 103.494l8.495 13.452h-54.109l-2.607-3.537zM586.961 261.399c-17.431-20.992-35.747-37.725-54.481-49.734-18.641-11.916-38.214-20.177-58.065-24.553-46.266-10.217-89.972-9.1-126.161 5.818-20.41 8.355-38.191 20.084-52.876 34.956-14.801 14.825-26.508 32.419-34.839 52.224-8.308 19.689-12.567 41.728-12.567 65.489 0 37.818 7.517 78.545 22.295 121.018 14.801 42.543 35.863 82.525 62.627 118.807 26.577 36.049 59.136 66.444 96.721 90.391 37.050 23.575 78.173 35.491 122.275 35.491 17.943 0 36.864-2.048 56.204-6.074 19.107-4.003 37.562-10.729 54.877-19.991 17.036-9.216 32.279-21.411 45.219-36.329 12.218-14.103 21.69-32.14 28.183-53.667l-103.052-253.3c-13.312-32.442-28.928-59.532-46.359-80.547z" />
<glyph unicode="&#xe91a;" glyph-name="attachment" d="M312.204 309.015c36.352-36.352 95.302-36.352 131.654 0l246.831 246.831c9.1 9.1 9.1 23.808 0 32.908s-23.808 9.1-32.908 0l-246.854-246.807c-18.153-18.176-47.639-18.176-65.815 0-18.176 18.153-18.176 47.639 0 65.815l394.938 394.961-32.908 32.908-394.938-394.961c-36.375-36.352-36.375-95.302 0-131.654zM114.711 120.273c-90.857 90.88-90.857 229.492 0 320.419 0.14 0.116 0.279 0.233 0.396 0.349v0.023l345.204 345.204c9.076 9.1 9.076 23.808 0 32.908-9.123 9.1-23.831 9.1-32.908 0l-345.6-345.577c-109.056-109.079-109.056-277.155 0-386.234 109.079-109.056 285.905-109.056 394.961 0l-33.327 32.559c-90.88-90.508-237.94-90.415-328.727 0.349zM970.449 835.631c-72.727 72.681-190.58 72.681-263.308 0l32.908-32.908c54.551 54.505 142.964 54.505 197.492 0 54.505-54.551 54.505-142.964 0-197.492l-493.684-484.957 32.908-32.908 493.684 484.957c72.727 72.727 72.727 190.58 0 263.308zM476.812 473.553c-0.023 0-0.047 0.047-0.047 0.047l0.047-0.047z" />
<glyph unicode="&#xe91b;" glyph-name="audio" d="M791.133 887.087c0.047 0.884 0.279 1.722 0.279 2.607 0 38.563-31.418 69.772-70.144 69.772-19.828 0-37.609-8.239-50.362-21.364l-284.672-258.56c-85.644-6.889-153.647-108.009-153.647-232.052 0-124.463 68.445-225.839 154.508-232.099l283.811-258.49c12.73-13.126 30.557-21.411 50.362-21.411 38.726 0 70.144 31.232 70.144 69.772 0 0.861-0.233 1.722-0.279 2.583v879.244zM372.224 265.007c-53.108 17.268-93.091 92.369-93.091 182.458 0 90.042 39.983 165.19 93.091 182.412v-364.87zM651.497 37.446l-232.727 211.898v396.916l10.403 9.472-0.093 0.047 222.417 201.891v-820.224zM744.588 5.585c0-12.916-10.473-23.319-23.412-23.319-6.703 0-12.66 2.863-16.943 7.354l-0.116-0.093-6.097 5.539v904.844l6.819 6.167 0.093-0.047c4.212 4.049 9.914 6.633 16.221 6.633 12.94 0 23.412-10.449 23.412-23.319v-883.759z" />
<glyph unicode="&#xe91c;" glyph-name="audio1" d="M768 587.101c-12.87 0-23.273-10.426-23.273-23.273s10.403-23.273 23.273-23.273c38.563 0 69.818-41.705 69.818-93.091 0-51.409-31.255-93.091-69.818-93.091-12.87 0-23.273-10.403-23.273-23.273s10.403-23.273 23.273-23.273c64.279 0 116.364 62.557 116.364 139.636 0 77.126-52.084 139.636-116.364 139.636zM698.461 889.693c0 38.563-31.418 69.772-70.121 69.772-19.852 0-37.632-8.239-50.385-21.364l-284.672-258.56c-85.644-6.912-153.647-108.032-153.647-232.076 0-124.463 68.445-225.839 154.508-232.099l283.811-258.49c12.753-13.126 30.557-21.411 50.385-21.411 38.703 0 70.121 31.232 70.121 69.772 0 0.861-0.233 1.722-0.279 2.583v879.267c0.047 0.884 0.279 1.722 0.279 2.607zM279.273 265.007c-53.108 17.268-93.091 92.369-93.091 182.458 0 90.042 39.983 165.19 93.091 182.412v-364.87zM558.545 37.446l-232.727 211.898v396.916l10.403 9.472-0.093 0.047 222.417 201.891v-820.224zM651.636 5.585c0-12.916-10.473-23.319-23.412-23.319-6.703 0-12.66 2.863-16.943 7.354l-0.116-0.093-6.074 5.562v904.82l6.819 6.167 0.070-0.047c4.236 4.049 9.937 6.633 16.244 6.633 12.94-0.023 23.412-10.449 23.412-23.343v-883.735z" />
<glyph unicode="&#xe91d;" glyph-name="audio2" d="M605.37 889.693c0 38.54-31.395 69.772-70.144 69.772-19.828 0-37.609-8.262-50.362-21.388l-284.672-258.56c-85.644-6.912-153.647-107.985-153.647-232.052 0-124.509 68.445-225.839 154.484-232.145l283.811-258.444c12.753-13.172 30.557-21.411 50.385-21.411 38.749 0 70.144 31.232 70.144 69.772 0 0.908-0.256 1.676-0.279 2.583v879.267c0.023 0.884 0.279 1.722 0.279 2.607zM186.182 265.007c-53.108 17.222-93.091 92.416-93.091 182.458 0 90.065 39.983 165.19 93.091 182.435v-364.893zM465.455 37.446l-232.727 211.875v396.94l10.403 9.449-0.070 0.070 222.394 201.891v-820.224zM558.545 5.585c0-12.916-10.473-23.319-23.412-23.319-6.703 0-12.66 2.863-16.919 7.354l-0.14-0.093-6.074 5.609v904.751l6.819 6.214 0.070-0.070c4.212 4.049 9.937 6.609 16.244 6.609 12.94 0 23.412-10.426 23.412-23.343v-883.712zM842.659 693.434l-0.442-0.652c-3.398 1.955-7.168 3.398-11.38 3.398-12.847 0-23.203-10.426-23.203-23.226 0-8.192 4.445-15.034 10.799-19.177l-0.070-0.116c66.863-38.865 112.547-116.55 112.547-206.196 0-89.553-45.545-167.145-112.244-206.057l0.163-0.233c-6.353-4.189-10.822-11.008-10.822-19.177 0-12.87 10.426-23.226 23.273-23.226 4.236 0 8.006 1.42 11.427 3.375l0.303-0.465c80.058 47.174 134.447 139.543 134.447 245.783 0 106.356-54.551 198.842-134.796 245.969zM721.455 587.101c-12.847 0-23.273-10.426-23.273-23.273 0-12.87 10.426-23.273 23.273-23.273 38.563 0 69.818-41.681 69.818-93.091s-31.255-93.091-69.818-93.091c-12.847 0-23.273-10.403-23.273-23.273s10.426-23.273 23.273-23.273c64.256 0 116.364 62.511 116.364 139.636s-52.108 139.636-116.364 139.636z" />
<glyph unicode="&#xe91e;" glyph-name="audio3" d="M749.568 693.457l-0.442-0.698c-3.398 1.955-7.168 3.421-11.38 3.421-12.847 0-23.203-10.426-23.203-23.273 0-8.169 4.445-15.034 10.799-19.153l-0.070-0.093c66.863-38.865 112.547-116.55 112.547-206.196 0-89.507-45.545-167.098-112.244-206.057l0.163-0.233c-6.353-4.189-10.822-11.055-10.822-19.177 0-12.87 10.426-23.273 23.273-23.273 4.236 0 8.006 1.42 11.427 3.398l0.303-0.489c80.058 47.22 134.447 139.59 134.447 245.83 0 106.38-54.551 198.819-134.796 245.993zM850.874 793.786l-0.489-0.675c-3.677 2.397-7.796 4.189-12.521 4.189-12.823 0-23.203-10.449-23.203-23.273 0-7.657 3.887-14.080 9.542-18.339 92.486-66.979 153.251-180.015 153.251-308.224 0-128.233-60.765-241.292-153.274-308.294l0.209-0.279c-5.423-4.282-9.123-10.589-9.123-17.99 0-12.87 10.403-23.273 23.273-23.273 4.724 0 8.867 1.722 12.544 4.189l0.233-0.326c1.187 0.815 2.211 1.908 3.398 2.769 0.093 0.093 0.233 0.186 0.349 0.279 102.028 75.776 168.937 200.96 168.937 342.924 0 143.988-68.655 270.941-173.126 346.321zM628.364 587.101c-12.847 0-23.273-10.426-23.273-23.273 0-12.87 10.426-23.273 23.273-23.273 38.563 0 69.818-41.705 69.818-93.091 0-51.409-31.255-93.091-69.818-93.091-12.847 0-23.273-10.403-23.273-23.273s10.426-23.273 23.273-23.273c64.256 0 116.364 62.511 116.364 139.636s-52.108 139.636-116.364 139.636zM558.801 889.693c0 38.54-31.372 69.772-70.121 69.772-19.828 0-37.609-8.262-50.362-21.388l-284.672-258.56c-85.644-6.912-153.647-108.009-153.647-232.052 0-124.463 68.445-225.839 154.484-232.145l283.811-258.444c12.753-13.126 30.557-21.411 50.385-21.411 38.749 0 70.121 31.232 70.121 69.772 0 0.861-0.233 1.722-0.256 2.583v879.267c0.023 0.884 0.256 1.722 0.256 2.607zM139.636 265.007c-53.108 17.268-93.091 92.416-93.091 182.458s39.983 165.19 93.091 182.435v-364.893zM418.909 37.446l-232.727 211.921v396.87l10.403 9.472-0.093 0.070 222.417 201.868v-820.201zM512 5.585c0-12.916-10.473-23.319-23.412-23.319-6.703 0-12.66 2.863-16.919 7.354l-0.14-0.093-6.074 5.562v904.82l6.819 6.167 0.070-0.070c4.212 4.073 9.937 6.633 16.244 6.633 12.94 0 23.412-10.449 23.412-23.319v-883.735z" />
<glyph unicode="&#xe91f;" glyph-name="bag" d="M976.849-37.702l0.419 0.047-93.091 698.182-0.419-0.047c-1.536 11.334-10.892 20.247-22.668 20.247h-162.909v93.091c0 102.819-83.363 186.182-186.182 186.182s-186.182-83.363-186.182-186.182v-93.091h-162.909c-11.776 0-21.132-8.913-22.668-20.247l-0.419 0.047-93.091-698.182 0.419-0.047c-0.14-1.024-0.605-1.955-0.605-3.025 0-12.87 10.403-23.273 23.273-23.273h884.364c12.87 0 23.273 10.403 23.273 23.273 0 1.071-0.465 2.001-0.605 3.025zM372.364 773.818c0 77.103 62.534 139.636 139.636 139.636 77.126 0 139.636-62.534 139.636-139.636v-93.091h-279.273v93.091zM183.273 634.182h142.545v-99.537c-13.871-8.076-23.273-22.9-23.273-40.099 0-25.693 20.852-46.545 46.545-46.545s46.545 20.852 46.545 46.545c0 17.175-9.402 32.023-23.273 40.099v99.537h279.273v-99.537c-13.871-8.076-23.273-22.9-23.273-40.099 0-25.693 20.852-46.545 46.545-46.545s46.545 20.852 46.545 46.545c0 17.175-9.402 32.023-23.273 40.099v99.537h142.545l74.449-558.545h-806.353l74.449 558.545zM96.419-17.455l6.191 46.545h818.804l6.191-46.545h-831.185z" />
<glyph unicode="&#xe920;" glyph-name="bags" d="M837.609-37.655l-46.545 605.091-0.419-0.047c-1.513 11.334-10.868 20.247-22.644 20.247h-162.909v46.545c0 102.819-83.363 186.182-186.182 186.182s-186.182-83.363-186.182-186.182v-46.545h-162.909c-11.776 0-21.108-8.913-22.668-20.247l-0.419 0.047-46.545-605.091 0.419-0.047c-0.14-1.024-0.605-1.955-0.605-3.025 0-12.87 10.403-23.273 23.273-23.273h791.273c12.87 0 23.273 10.403 23.273 23.273 0 1.071-0.465 2.001-0.605 3.025l0.396 0.047zM279.273 634.182c0 77.103 62.534 139.636 139.636 139.636 77.126 0 139.636-62.534 139.636-139.636v-46.545h-279.273v46.545zM91.322 541.091h141.405v-99.537c-13.847-8.076-23.273-22.924-23.273-40.099 0-25.693 20.852-46.545 46.545-46.545s46.545 20.852 46.545 46.545c0 17.175-9.402 32.023-23.273 40.099v99.537h279.273v-99.537c-13.871-8.076-23.273-22.9-23.273-40.099 0-25.693 20.852-46.545 46.545-46.545s46.545 20.852 46.545 46.545c0 17.175-9.402 32.023-23.273 40.099v99.537h141.405l35.793-465.455h-726.737l35.77 465.455zM48.361-17.455l3.607 46.545h733.905l3.584-46.545h-741.097zM1023.395 101.935l0.419 0.047-46.545 605.091-0.419-0.070c-1.536 11.357-10.892 20.271-22.668 20.271h-162.909v46.545c0 102.819-83.363 186.182-186.182 186.182-69.399 0-129.815-38.051-161.839-94.371 16.849-1.722 33.094-5.399 48.687-10.589 25.344 35.235 66.42 58.415 113.152 58.415 77.103 0 139.636-62.534 139.636-139.636v-46.545h-112.454c6.493-14.825 11.59-30.371 14.871-46.545h97.583v-46.545h23.482c8.076 0 15.802-1.536 23.063-4.189v50.735h141.405l35.793-465.455h-103.424l3.584-46.545h103.401l3.584-46.545h-103.424l3.584-46.545h124.951c12.87 0 23.273 10.403 23.273 23.273 0 1.071-0.465 1.978-0.605 3.025z" />
<glyph unicode="&#xe921;" glyph-name="ban" d="M512 960c-282.787 0-512-229.236-512-512s229.213-512 512-512c282.764 0 512 229.236 512 512s-229.236 512-512 512zM512-17.455c-257.071 0-465.455 208.384-465.455 465.455 0 120.134 45.917 229.306 120.646 311.878l656.687-656.64c-82.548-74.775-191.744-120.692-311.878-120.692zM856.785 136.099l-656.687 656.687c82.595 74.752 191.744 120.669 311.901 120.669 257.071 0 465.455-208.384 465.455-465.455 0-120.157-45.917-229.329-120.669-311.901z" />
<glyph unicode="&#xe922;" glyph-name="bandaid" d="M442.671 401.315c-12.87 0-23.273-10.403-23.273-23.273s10.403-23.273 23.273-23.273 23.273 10.403 23.273 23.273-10.403 23.273-23.273 23.273zM396.125 517.679c-12.87 0-23.273-10.426-23.273-23.273 0-12.87 10.403-23.273 23.273-23.273s23.273 10.403 23.273 23.273c0 12.847-10.403 23.273-23.273 23.273zM326.307 447.86c-12.87 0-23.273-10.426-23.273-23.273 0-12.87 10.403-23.273 23.273-23.273s23.273 10.403 23.273 23.273c0 12.847-10.403 23.273-23.273 23.273zM465.943 540.951c12.87 0 23.273 10.403 23.273 23.273 0 12.847-10.403 23.273-23.273 23.273s-23.273-10.426-23.273-23.273c0-12.87 10.403-23.273 23.273-23.273zM489.216 284.951c-12.87 0-23.273-10.403-23.273-23.273s10.403-23.273 23.273-23.273 23.273 10.403 23.273 23.273-10.403 23.273-23.273 23.273zM512.489 471.133c-12.87 0-23.273-10.426-23.273-23.273 0-12.87 10.403-23.273 23.273-23.273s23.273 10.403 23.273 23.273c0 12.847-10.403 23.273-23.273 23.273zM582.307 494.406c12.87 0 23.273 10.403 23.273 23.273 0 12.847-10.403 23.273-23.273 23.273s-23.273-10.426-23.273-23.273c0-12.87 10.426-23.273 23.273-23.273zM628.852 378.042c12.87 0 23.273 10.403 23.273 23.273 0 12.847-10.403 23.273-23.273 23.273s-23.273-10.426-23.273-23.273c0-12.87 10.426-23.273 23.273-23.273zM512.489 634.042c0-12.87 10.403-23.273 23.273-23.273s23.273 10.403 23.273 23.273c0 12.847-10.403 23.273-23.273 23.273s-23.273-10.426-23.273-23.273zM1024.489 727.133c0 128.535-104.192 232.727-232.727 232.727-52.41 0-100.538-17.524-139.45-46.755l-1.862 1.839-23.226-23.226c0-0.023-0.047-0.047-0.047-0.070l-558.545-558.522c-42.124-42.1-68.166-100.305-68.166-164.538 0-128.535 104.192-232.727 232.727-232.727 64.279 0 122.461 26.042 164.561 68.189l581.818 581.772-1.815 1.862c29.207 38.889 46.732 87.040 46.732 139.45zM364.87 36.934c-33.699-33.699-80.244-54.528-131.654-54.528-102.819 0-186.182 83.34-186.182 186.182 0 51.409 20.829 97.955 54.551 131.631l88.273 88.273 263.261-263.284-88.25-88.273zM486.051 158.115l-263.284 263.284 316.183 316.183 263.284-263.308-316.183-316.16zM944.547 620.916l2.141-2.164-23.273-23.249v-0.047l-88.273-88.273-263.284 263.308 111.546 111.546 2.095-2.141c30.185 20.992 66.723 33.42 106.263 33.42 102.819 0 186.182-83.363 186.182-186.182 0-39.54-12.404-76.079-33.396-106.217zM698.671 447.86c12.87 0 23.273 10.403 23.273 23.273s-10.403 23.273-23.273 23.273-23.273-10.403-23.273-23.273 10.426-23.273 23.273-23.273zM559.034 354.769c-12.87 0-23.273-10.426-23.273-23.273 0-12.87 10.403-23.273 23.273-23.273s23.273 10.403 23.273 23.273c0 12.847-10.403 23.273-23.273 23.273z" />
<glyph unicode="&#xe923;" glyph-name="barcode" d="M488.727 75.101h46.545v744.727h-46.545v-744.727zM325.818 75.101h116.364v744.727h-116.364v-744.727zM93.091 75.101h93.091v744.727h-93.091v-744.727zM0 773.283v-651.636c0-25.693 20.852-46.545 46.545-46.545v744.727c-25.693 0-46.545-20.829-46.545-46.545zM232.727 75.101h46.545v744.727h-46.545v-744.727zM977.455 819.828h-46.545v-744.727h46.545c25.693 0 46.545 20.852 46.545 46.545v651.636c0 25.716-20.852 46.545-46.545 46.545zM837.818 75.101h46.545v744.727h-46.545v-744.727zM674.909 75.101h116.364v744.727h-116.364v-744.727zM581.818 75.101h46.545v744.727h-46.545v-744.727z" />
<glyph unicode="&#xe924;" glyph-name="barcode1" d="M186.182 691.34v268.148h-93.091v-378.438c23.622 42.589 55.343 80.012 93.091 110.289zM0 912.943v-651.66c0-25.716 20.852-46.545 46.545-46.545v744.751c-25.693 0-46.545-20.852-46.545-46.545zM279.273 959.488h-46.545v-236.404c14.918 8.634 30.417 16.361 46.545 22.877v213.527zM442.182 772.096v187.392h-116.364v-198.377c29.789 7.68 60.881 12.195 93.091 12.195 7.866 0 15.523-0.721 23.273-1.21zM628.364 959.488h-46.545v-224.116c16.128-7.889 31.814-16.593 46.545-26.624v250.74zM93.091 214.737h3.677c-1.187 2.025-2.537 3.98-3.677 6.028v-6.028zM535.273 959.488h-46.545v-192.954c15.919-3.025 31.418-7.075 46.545-12.032v204.986zM791.273 959.488h-116.364v-288.605c71.517-67.84 116.364-163.584 116.364-269.917v558.522zM791.273 214.737v186.135c0-67.863-18.479-131.328-50.223-186.135h50.223zM837.818 214.737h46.545v744.751h-46.545v-744.751zM664.972 187.764c49.571 57.135 79.756 131.561 79.756 213.155 0 179.945-145.897 325.841-325.818 325.841-179.945 0-325.818-145.897-325.818-325.841s145.873-325.818 325.818-325.818c81.594 0 155.997 30.231 213.155 79.779l212.573-212.596c4.212-4.236 10.031-6.819 16.454-6.819 12.847 0 23.273 10.403 23.273 23.273 0 6.4-2.607 12.218-6.819 16.454l-212.573 212.573zM418.909 121.647c-154.228 0-279.273 125.044-279.273 279.273 0 154.252 125.044 279.296 279.273 279.296s279.273-125.044 279.273-279.296c0-154.228-125.044-279.273-279.273-279.273zM977.455 959.488h-46.545v-744.751h46.545c25.693 0 46.545 20.829 46.545 46.545v651.66c0 25.693-20.852 46.545-46.545 46.545zM325.818 561.99v-322.141c27.415-15.919 59.136-25.135 93.091-25.135 7.889 0 15.639 0.628 23.273 1.583v369.199c-7.633 0.954-15.383 1.606-23.273 1.606-33.955 0.023-65.676-9.216-93.091-25.111zM279.273 278.039v245.737c-28.881-32.791-46.545-75.753-46.545-122.88s17.664-90.042 46.545-122.857zM581.818 310.854c14.801 26.671 23.273 57.367 23.273 90.042 0 32.698-8.471 63.372-23.273 90.089v-180.131zM488.727 228.399c16.896 6.819 32.512 16.035 46.545 27.276v290.444c-14.033 11.241-29.649 20.48-46.545 27.299v-345.018z" />
<glyph unicode="&#xe925;" glyph-name="barcode2" d="M558.545 819.828h-93.091v-372.364h93.091v372.364zM418.909 819.828h-46.545v-372.364h46.545v372.364zM325.818 819.828h-93.091v-372.364h93.091v372.364zM186.182 819.828h-46.545v-372.364h46.545v372.364zM93.091 819.828c-25.693 0-46.545-20.852-46.545-46.545v-325.818h46.545v372.364zM837.818 819.828h-46.545v-372.364h46.545v372.364zM651.636 819.828h-46.545v-372.364h46.545v372.364zM977.455 773.283c0 25.693-20.852 46.545-46.545 46.545h-46.545v-372.364h93.091v325.818zM744.727 819.828h-46.545v-372.364h46.545v372.364zM884.364 75.101h46.545c25.693 0 46.545 20.852 46.545 46.545v93.091h-93.091v-139.636zM698.182 75.101h46.545v139.636h-46.545v-139.636zM791.273 75.101h46.545v139.636h-46.545v-139.636zM46.545 121.647c0-25.693 20.852-46.545 46.545-46.545v139.636h-46.545v-93.091zM977.455 400.919h-930.909c-25.693 0-46.545-20.829-46.545-46.545v-46.545c0-25.693 20.852-46.545 46.545-46.545h930.909c25.693 0 46.545 20.852 46.545 46.545v46.545c0 25.716-20.852 46.545-46.545 46.545zM977.455 307.828h-930.909v46.545h930.909v-46.545zM605.091 75.101h46.545v139.636h-46.545v-139.636zM232.727 75.101h93.091v139.636h-93.091v-139.636zM139.636 75.101h46.545v139.636h-46.545v-139.636zM372.364 75.101h46.545v139.636h-46.545v-139.636zM465.455 75.101h93.091v139.636h-93.091v-139.636z" />
<glyph unicode="&#xe926;" glyph-name="barcode3" d="M581.818 773.283h-325.818c-12.87 0-23.273-10.426-23.273-23.273 0-12.87 10.403-23.273 23.273-23.273h325.818c12.87 0 23.273 10.403 23.273 23.273 0 12.847-10.403 23.273-23.273 23.273zM209.455 470.737c12.87 0 23.273 10.403 23.273 23.273 0 12.847-10.403 23.273-23.273 23.273s-23.273-10.426-23.273-23.273c0-12.87 10.403-23.273 23.273-23.273zM977.455 633.647h-46.545v139.636l-186.182 186.182h-605.091c-25.716 0-46.545-20.852-46.545-46.545v-279.273h-46.545c-25.716 0-46.545-20.852-46.545-46.545v-186.182c0-25.693 20.829-46.545 46.545-46.545h46.545v-395.636c0-12.87 10.403-23.273 23.273-23.273s23.273 10.403 23.273 23.273v395.636h46.545v-256c0-12.87 10.403-23.273 23.273-23.273s23.273 10.403 23.273 23.273v256h46.545v-116.364c0-12.87 10.403-23.273 23.273-23.273s23.273 10.403 23.273 23.273v116.364h46.545v-349.091c0-12.87 10.403-23.273 23.273-23.273s23.273 10.403 23.273 23.273v349.091h69.818v-302.545c0-12.87 10.403-23.273 23.273-23.273s23.273 10.403 23.273 23.273v302.545h69.818v-162.909c0-12.87 10.403-23.273 23.273-23.273s23.273 10.403 23.273 23.273v162.909h46.545v-209.455c0-12.87 10.403-23.273 23.273-23.273s23.273 10.403 23.273 23.273v209.455h46.545v-349.091c0-12.87 10.403-23.273 23.273-23.273s23.273 10.403 23.273 23.273v349.091h46.545v-302.545c0-12.87 10.403-23.273 23.273-23.273s23.273 10.403 23.273 23.273v302.545h46.545c25.693 0 46.545 20.852 46.545 46.545v186.182c0 25.693-20.852 46.545-46.545 46.545zM744.727 889.647l116.364-116.364h-116.364v116.364zM139.636 912.919h558.545v-162.909c0-12.87 10.403-23.273 23.273-23.273h162.909v-93.091h-744.727v279.273zM977.455 400.919h-930.909v186.182h930.909v-186.182zM116.364 470.737c12.87 0 23.273 10.403 23.273 23.273 0 12.847-10.403 23.273-23.273 23.273s-23.273-10.426-23.273-23.273c0-12.87 10.403-23.273 23.273-23.273z" />
<glyph unicode="&#xe927;" glyph-name="basket" d="M977.455 587.636h-63.232l-385.396 271.895c-4.236 4.468-10.147 7.377-16.826 7.377s-12.591-2.886-16.826-7.354l-0.093 0.093-385.303-272.012h-63.232c-25.716 0-46.545-20.852-46.545-46.545v-46.545c0-25.693 20.829-46.545 46.545-46.545h9.309l84.48-401.268 0.442 0.093c2.537-10.1 11.264-17.734 22.132-17.734h698.182c10.892 0 19.619 7.633 22.156 17.734l0.442-0.093 84.457 401.268h9.309c25.693 0 46.545 20.852 46.545 46.545v46.545c0 25.693-20.852 46.545-46.545 46.545zM512 815.686l323.119-228.049h-646.214l323.095 228.049zM103.401 448h159.977l14.685-93.091h-155.066l-19.596 93.091zM132.794 308.364h152.623l14.662-93.091h-147.712l-19.572 93.091zM181.76 75.636l-19.572 93.091h145.268l14.685-93.091h-140.381zM488.727 75.636h-120.041l-14.685 93.091h134.726v-93.091zM488.727 215.273h-142.103l-14.662 93.091h156.765v-93.091zM488.727 354.909h-164.143l-14.685 93.091h178.828v-93.091zM655.313 75.636h-120.041v93.091h134.726l-14.685-93.091zM677.376 215.273h-142.103v93.091h156.765l-14.662-93.091zM535.273 354.909v93.091h178.828l-14.685-93.091h-164.143zM842.217 75.636h-140.358l14.685 93.091h145.268l-19.596-93.091zM871.633 215.273h-147.712l14.662 93.091h152.646l-19.596-93.091zM901.027 354.909h-155.066l14.685 93.091h159.977l-19.596-93.091zM977.455 494.545h-930.909v46.545h930.909v-46.545z" />
<glyph unicode="&#xe928;" glyph-name="basket1" d="M495.546 594.432c4.212-4.212 10.054-6.796 16.454-6.796 6.423 0 12.241 2.583 16.454 6.796l93.091 93.091c4.236 4.212 6.819 10.031 6.819 16.477 0 12.847-10.403 23.273-23.273 23.273-6.4 0-12.218-2.607-16.454-6.819l-53.364-53.364v223.092c0 12.847-10.403 23.273-23.273 23.273s-23.273-10.426-23.273-23.273v-223.092l-53.364 53.364c-4.212 4.189-10.031 6.819-16.454 6.819-12.87 0-23.273-10.426-23.273-23.273 0-6.423 2.583-12.241 6.819-16.477l93.091-93.091zM977.455 541.091h-930.909c-25.693 0-46.545-20.852-46.545-46.545v-46.545c0-25.716 20.852-46.545 46.545-46.545h9.309l84.48-401.292 0.442 0.116c2.537-10.1 11.264-17.734 22.132-17.734h698.182c10.892 0 19.619 7.633 22.156 17.734l0.442-0.116 84.457 401.292h9.309c25.693 0 46.545 20.829 46.545 46.545v46.545c0 25.693-20.852 46.545-46.545 46.545zM103.401 401.455h159.977l14.685-93.091h-155.066l-19.596 93.091zM132.794 261.818h152.623l14.685-93.091h-147.735l-19.572 93.091zM181.783 29.091l-19.596 93.091h145.268l14.685-93.091h-140.358zM488.727 29.091h-120.041l-14.685 93.091h134.726v-93.091zM488.727 168.727h-142.080l-14.685 93.091h156.765v-93.091zM488.727 308.364h-164.143l-14.685 93.091h178.828v-93.091zM655.313 29.091h-120.041v93.091h134.726l-14.685-93.091zM677.353 168.727h-142.080v93.091h156.765l-14.685-93.091zM535.273 308.364v93.091h178.828l-14.685-93.091h-164.143zM842.217 29.091h-140.358l14.685 93.091h145.268l-19.596-93.091zM871.633 168.727h-147.735l14.685 93.091h152.646l-19.596-93.091zM901.027 308.364h-155.066l14.685 93.091h159.977l-19.596-93.091zM977.455 448h-930.909v46.545h930.909v-46.545z" />
<glyph unicode="&#xe929;" glyph-name="basket2" d="M418.909 773.818c6.423 0 12.241 2.607 16.454 6.819l53.364 53.341v-223.069c0-12.87 10.403-23.273 23.273-23.273s23.273 10.403 23.273 23.273v223.069l53.364-53.364c4.212-4.189 10.031-6.796 16.454-6.796 12.87 0 23.273 10.403 23.273 23.273 0 6.4-2.607 12.218-6.819 16.454l-93.091 93.091c-4.212 4.189-10.031 6.819-16.454 6.819s-12.218-2.583-16.454-6.819l-93.091-93.091c-4.236-4.236-6.819-10.054-6.819-16.454 0-12.87 10.403-23.273 23.273-23.273zM977.455 541.091h-930.909c-25.693 0-46.545-20.852-46.545-46.545v-46.545c0-25.716 20.852-46.545 46.545-46.545h9.309l84.48-401.292 0.442 0.116c2.537-10.1 11.264-17.734 22.132-17.734h698.182c10.892 0 19.619 7.633 22.156 17.734l0.442-0.116 84.48 401.292h9.286c25.693 0 46.545 20.829 46.545 46.545v46.545c0 25.693-20.852 46.545-46.545 46.545zM103.401 401.455h159.977l14.685-93.091h-155.066l-19.596 93.091zM132.794 261.818h152.623l14.685-93.091h-147.712l-19.596 93.091zM181.783 29.091l-19.596 93.091h145.268l14.685-93.091h-140.358zM488.727 29.091h-120.041l-14.685 93.091h134.726v-93.091zM488.727 168.727h-142.080l-14.685 93.091h156.765v-93.091zM488.727 308.364h-164.143l-14.685 93.091h178.828v-93.091zM655.313 29.091h-120.041v93.091h134.726l-14.685-93.091zM677.353 168.727h-142.080v93.091h156.765l-14.685-93.091zM535.273 308.364v93.091h178.851l-14.708-93.091h-164.143zM842.217 29.091h-140.358l14.685 93.091h145.268l-19.596-93.091zM871.61 168.727h-147.712l14.685 93.091h152.646l-19.619-93.091zM901.027 308.364h-155.066l14.708 93.091h159.953l-19.596-93.091zM977.455 448h-930.909v46.545h930.909v-46.545z" />
<glyph unicode="&#xe92a;" glyph-name="basket3" d="M355.91 780.614v0l93.068-93.091c4.259-4.212 10.077-6.796 16.477-6.796 12.847 0 23.273 10.403 23.273 23.273 0 6.377-2.583 12.195-6.819 16.454l-53.364 53.364h223.092c12.847 0 23.273 10.403 23.273 23.273s-10.426 23.273-23.273 23.273h-223.092l53.364 53.364c4.236 4.189 6.819 10.007 6.819 16.454 0 12.87-10.426 23.273-23.273 23.273-6.4 0-12.218-2.607-16.477-6.819l-93.068-93.091c-4.212-4.259-6.819-10.077-6.819-16.454 0-6.447 2.607-12.265 6.819-16.477zM977.455 541.091h-930.909c-25.693 0-46.545-20.852-46.545-46.545v-46.545c0-25.693 20.852-46.545 46.545-46.545h9.309l84.48-401.268 0.419 0.093c2.56-10.1 11.287-17.734 22.156-17.734h698.182c10.892 0 19.619 7.633 22.156 17.734l0.442-0.093 84.48 401.268h9.286c25.693 0 46.545 20.852 46.545 46.545v46.545c0 25.693-20.852 46.545-46.545 46.545zM103.377 401.455h159.977l14.685-93.091h-155.043l-19.619 93.091zM132.817 261.818h152.599l14.708-93.091h-147.759l-19.549 93.091zM181.783 29.091l-19.572 93.091h145.222l14.708-93.091h-140.358zM488.727 29.091h-120.041l-14.708 93.091h134.749v-93.091zM488.727 168.727h-142.080l-14.685 93.091h156.765v-93.091zM488.727 308.364h-164.143l-14.685 93.091h178.828v-93.091zM655.313 29.091h-120.041v93.091h134.749l-14.708-93.091zM677.353 168.727h-142.080v93.091h156.788l-14.708-93.091zM535.273 308.364v93.091h178.851l-14.685-93.091h-164.166zM842.24 29.091h-140.381l14.708 93.091h145.245l-19.572-93.091zM871.633 168.727h-147.735l14.708 93.091h152.599l-19.572-93.091zM901.027 308.364h-155.043l14.685 93.091h159.977l-19.619-93.091zM977.455 448h-930.909v46.545h930.909v-46.545z" />
<glyph unicode="&#xe92b;" glyph-name="basket4" d="M372.364 773.818v0h223.092l-53.364-53.364c-4.212-4.259-6.819-10.077-6.819-16.454 0-12.87 10.426-23.273 23.273-23.273 6.423 0 12.241 2.583 16.454 6.819l93.091 93.091c4.236 4.189 6.819 10.007 6.819 16.454 0 6.377-2.583 12.195-6.819 16.454l-93.091 93.091c-4.212 4.189-10.031 6.819-16.454 6.819-12.847 0-23.273-10.403-23.273-23.273 0-6.423 2.607-12.241 6.819-16.454l53.364-53.364h-223.092c-12.847 0-23.273-10.403-23.273-23.273s10.426-23.273 23.273-23.273zM977.455 541.091h-930.909c-25.693 0-46.545-20.852-46.545-46.545v-46.545c0-25.693 20.852-46.545 46.545-46.545h9.309l84.48-401.268 0.419 0.093c2.56-10.1 11.287-17.734 22.156-17.734h698.182c10.892 0 19.619 7.633 22.156 17.734l0.442-0.093 84.48 401.268h9.286c25.693 0 46.545 20.852 46.545 46.545v46.545c0 25.693-20.852 46.545-46.545 46.545zM103.377 401.455h159.977l14.685-93.091h-155.043l-19.619 93.091zM132.817 261.818h152.599l14.685-93.091h-147.712l-19.572 93.091zM181.783 29.091l-19.572 93.091h145.245l14.708-93.091h-140.381zM488.727 29.091h-120.041l-14.708 93.091h134.749v-93.091zM488.727 168.727h-142.080l-14.685 93.091h156.765v-93.091zM488.727 308.364h-164.143l-14.685 93.091h178.828v-93.091zM655.313 29.091h-120.041v93.091h134.749l-14.708-93.091zM677.353 168.727h-142.080v93.091h156.788l-14.708-93.091zM535.273 308.364v93.091h178.851l-14.685-93.091h-164.166zM842.24 29.091h-140.381l14.708 93.091h145.245l-19.572-93.091zM871.633 168.727h-147.735l14.708 93.091h152.599l-19.572-93.091zM901.027 308.364h-155.043l14.685 93.091h159.977l-19.619-93.091zM977.455 448h-930.909v46.545h930.909v-46.545z" />
<glyph unicode="&#xe92c;" glyph-name="battery-25" d="M93.091 261.283h232.727v372.364h-232.727v-372.364zM977.455 540.556v93.091c0 51.409-41.681 93.091-93.091 93.091h-791.273c-51.409 0-93.091-41.681-93.091-93.091v-372.364c0-51.409 41.681-93.091 93.091-93.091h791.273c51.409 0 93.091 41.681 93.091 93.091v93.091c25.693 0 46.545 20.829 46.545 46.545v93.091c0 25.693-20.852 46.545-46.545 46.545zM930.909 261.283c0-25.716-20.852-46.545-46.545-46.545h-791.273c-25.693 0-46.545 20.829-46.545 46.545v372.364c0 25.693 20.852 46.545 46.545 46.545h791.273c25.693 0 46.545-20.852 46.545-46.545v-372.364z" />
<glyph unicode="&#xe92d;" glyph-name="battery-50" d="M93.091 261.283h418.909v372.364h-418.909v-372.364zM977.455 540.556v93.091c0 51.409-41.681 93.091-93.091 93.091h-791.273c-51.409 0-93.091-41.681-93.091-93.091v-372.364c0-51.409 41.681-93.091 93.091-93.091h791.273c51.409 0 93.091 41.681 93.091 93.091v93.091c25.693 0 46.545 20.829 46.545 46.545v93.091c0 25.693-20.852 46.545-46.545 46.545zM930.909 261.283c0-25.716-20.852-46.545-46.545-46.545h-791.273c-25.693 0-46.545 20.829-46.545 46.545v372.364c0 25.693 20.852 46.545 46.545 46.545h791.273c25.693 0 46.545-20.852 46.545-46.545v-372.364z" />
<glyph unicode="&#xe92e;" glyph-name="battery-75" d="M977.455 540.556v93.091c0 51.409-41.681 93.091-93.091 93.091h-791.273c-51.409 0-93.091-41.681-93.091-93.091v-372.364c0-51.409 41.681-93.091 93.091-93.091h791.273c51.409 0 93.091 41.681 93.091 93.091v93.091c25.693 0 46.545 20.852 46.545 46.545v93.091c0 25.716-20.852 46.545-46.545 46.545zM930.909 261.283c0-25.693-20.852-46.545-46.545-46.545h-791.273c-25.693 0-46.545 20.852-46.545 46.545v372.364c0 25.693 20.852 46.545 46.545 46.545h791.273c25.693 0 46.545-20.852 46.545-46.545v-372.364zM93.091 261.283h605.091v372.364h-605.091v-372.364z" />
<glyph unicode="&#xe92f;" glyph-name="battery-100" d="M977.455 540.556v93.091c0 51.409-41.681 93.091-93.091 93.091h-791.273c-51.409 0-93.091-41.681-93.091-93.091v-372.364c0-51.409 41.681-93.091 93.091-93.091h791.273c51.409 0 93.091 41.681 93.091 93.091v93.091c25.693 0 46.545 20.852 46.545 46.545v93.091c0 25.716-20.852 46.545-46.545 46.545zM930.909 261.283c0-25.693-20.852-46.545-46.545-46.545h-791.273c-25.693 0-46.545 20.852-46.545 46.545v372.364c0 25.693 20.852 46.545 46.545 46.545h791.273c25.693 0 46.545-20.852 46.545-46.545v-372.364zM93.091 261.283h791.273v372.364h-791.273v-372.364z" />
<glyph unicode="&#xe930;" glyph-name="battery-empty" d="M977.455 540.556v93.091c0 51.409-41.681 93.091-93.091 93.091h-791.273c-51.409 0-93.091-41.681-93.091-93.091v-372.364c0-51.409 41.681-93.091 93.091-93.091h791.273c51.409 0 93.091 41.681 93.091 93.091v93.091c25.693 0 46.545 20.829 46.545 46.545v93.091c0 25.693-20.852 46.545-46.545 46.545zM930.909 261.283c0-25.716-20.852-46.545-46.545-46.545h-791.273c-25.716 0-46.545 20.829-46.545 46.545v372.364c0 25.693 20.829 46.545 46.545 46.545h791.273c25.693 0 46.545-20.852 46.545-46.545v-372.364z" />
<glyph unicode="&#xe931;" glyph-name="binocular" d="M233.216 401.315c-77.126 0-139.636-62.534-139.636-139.636 0-12.87 10.403-23.273 23.273-23.273s23.273 10.403 23.273 23.273c0 51.409 41.681 93.091 93.091 93.091 12.87 0 23.273 10.403 23.273 23.273s-10.403 23.273-23.273 23.273zM791.761 401.315c-77.126 0-139.636-62.534-139.636-139.636 0-12.87 10.403-23.273 23.273-23.273s23.273 10.403 23.273 23.273c0 51.409 41.681 93.091 93.091 93.091 12.87 0 23.273 10.403 23.273 23.273s-10.403 23.273-23.273 23.273zM1000.867 363.311l-170.543 410.368-0.559-0.093c-19.177 54.156-70.353 93.184-131.095 93.184-77.126 0-139.636-62.557-139.636-139.636h-93.091c0 77.103-62.557 139.636-139.636 139.636-60.719 0-111.919-39.028-131.119-93.184l-0.512 0.093-170.566-410.368c-14.988-30.743-23.622-65.14-23.622-101.632 0-128.535 104.192-232.727 232.727-232.727 112.593 0 206.499 79.965 228.049 186.182h102.47c21.551-106.217 115.456-186.182 228.049-186.182 128.535 0 232.727 104.192 232.727 232.727-0.023 36.492-8.657 70.912-23.645 101.632zM233.216 75.497c-102.819 0-186.182 83.363-186.182 186.182s83.363 186.182 186.182 186.182 186.182-83.363 186.182-186.182-83.363-186.182-186.182-186.182zM419.421 400.873c-42.426 56.692-109.94 93.556-186.205 93.556-42.775 0-82.735-11.729-117.155-31.86l125.789 303.034h-0.093c14.639 32.186 46.918 54.644 84.55 54.644 48.593 0 88.041-37.376 92.276-84.876l0.908-0.163-0.070-334.336zM559.034 261.679h-93.091v46.545h93.091v-46.545zM559.034 354.769h-93.091v325.818h93.091v-325.818zM605.51 735.185l0.908 0.163c4.236 47.5 43.683 84.876 92.276 84.876 37.632 0 69.911-22.458 84.55-54.644h-0.116l125.766-303.034c-34.42 20.131-74.356 31.86-117.132 31.86-76.265 0-143.779-36.864-186.228-93.556l-0.023 334.336zM791.761 75.497c-102.819 0-186.182 83.363-186.182 186.182s83.363 186.182 186.182 186.182 186.182-83.363 186.182-186.182-83.363-186.182-186.182-186.182z" />
<glyph unicode="&#xe932;" glyph-name="bluetooth" d="M784.849 207.5l-0.372 0.372c-0.023 0.047-0.047 0.047-0.070 0.093l-225.862 225.839v27.299l226.234 226.374c3.98 4.189 6.493 9.775 6.493 16.012 0 6.4-2.607 12.218-6.819 16.454l-232.727 232.727c-4.236 4.189-10.054 6.796-16.454 6.796-12.847 0-23.273-10.426-23.273-23.273v-455.82l-239.22 239.081c-4.236 4.445-10.147 7.284-16.78 7.284-12.847 0-23.273-10.426-23.273-23.273 0-6.237 2.513-11.823 6.493-16.012l-0.070-0.070 0.396-0.396v-0.023l239.546-239.523-239.5-239.476c-0.023-0.047-0.047-0.047-0.070-0.093l-0.372-0.372 0.070-0.047c-3.98-4.189-6.493-9.775-6.493-15.988 0-12.823 10.426-23.273 23.273-23.273 6.633 0 12.544 2.863 16.78 7.308l0.070-0.093 239.151 239.127v-455.82c0-12.87 10.426-23.273 23.273-23.273 6.4 0 12.218 2.583 16.454 6.819l232.727 232.727c4.212 4.236 6.819 10.054 6.819 16.477 0 6.237-2.513 11.823-6.493 16.012l0.070 0.023zM558.545 880.012l176.547-176.547-176.547-176.57v353.117zM558.545 14.918v353.071l176.547-176.547-176.547-176.524z" />
<glyph unicode="&#xe933;" glyph-name="bone" d="M969.961 447.86c32.954 23.156 54.551 61.417 54.551 104.727 0 70.679-57.321 128-128 128s-128-57.321-128-128c0-3.956 0.372-7.773 0.721-11.636h-513.466c0.372 3.863 0.721 7.68 0.721 11.636 0 70.679-57.321 128-128 128s-128-57.321-128-128c0-43.311 21.597-81.571 54.551-104.727-32.954-23.156-54.551-61.393-54.551-104.727 0-70.679 57.321-128 128-128s128 57.321 128 128c0 3.956-0.372 7.796-0.721 11.636h513.466c-0.372-3.84-0.721-7.68-0.721-11.636 0-70.679 57.321-128 128-128s128 57.321 128 128c-0.023 43.334-21.597 81.571-54.551 104.727zM896.489 261.679c-45.009 0-81.455 36.468-81.455 81.455 0 22.807 9.449 43.38 24.553 58.182h-654.22c15.104-14.801 24.576-35.375 24.576-58.182 0-44.986-36.445-81.455-81.455-81.455-44.986 0-81.455 36.468-81.455 81.455 0 41.007 30.417 74.589 69.818 80.268v1.187c12.87 0 23.273 10.403 23.273 23.273s-10.403 23.273-23.273 23.273v1.187c-39.401 5.679-69.818 39.284-69.818 80.268 0 45.009 36.468 81.455 81.455 81.455 45.009 0 81.455-36.445 81.455-81.455 0-22.807-9.449-43.404-24.576-58.182h654.22c-15.081 14.778-24.553 35.375-24.553 58.182 0 45.009 36.445 81.455 81.455 81.455s81.455-36.445 81.455-81.455c0-41.007-30.417-74.589-69.818-80.268v-1.187c-12.87 0-23.273-10.403-23.273-23.273s10.403-23.273 23.273-23.273v-1.187c39.401-5.679 69.818-39.284 69.818-80.268 0-44.963-36.445-81.455-81.455-81.455z" />
<glyph unicode="&#xe934;" glyph-name="bottle" d="M605.58 680.588v232.727c0 25.693-20.852 46.545-46.545 46.545h-93.091c-25.693 0-46.545-20.852-46.545-46.545v-232.727c-77.103 0-139.636-62.511-139.636-139.636v-465.455c0-77.103 62.534-139.636 139.636-139.636h186.182c77.103 0 139.636 62.534 139.636 139.636v465.455c0 77.149-62.534 139.636-139.636 139.636zM465.943 913.315h93.091v-46.545h-93.091v46.545zM465.943 820.224h93.091v-139.636h-93.091v139.636zM698.671 75.497c0-51.409-41.681-93.091-93.091-93.091h-186.182c-51.409 0-93.091 41.681-93.091 93.091v93.091h372.364v-93.091zM698.671 215.133h-372.364v186.182h372.364v-186.182zM698.671 447.86h-372.364v93.091c0 51.409 41.681 93.091 93.091 93.091h186.182c51.409 0 93.091-41.681 93.091-93.091v-93.091z" />
<glyph unicode="&#xe935;" glyph-name="broken-heart" d="M1024.489 657.315c0 167.098-135.447 302.545-302.545 302.545-81.361 0-155.089-32.303-209.455-84.55-54.365 52.247-128.093 84.55-209.455 84.55-167.098 0-302.545-135.447-302.545-302.545 0-19.456 3.072-42.682 2.141-34.746 32.582-298.845 465.059-686.708 509.859-686.708 44.777 0 477.277 387.863 509.882 686.708-0.908-7.936 2.118 15.29 2.118 34.746zM976.081 627.619c-27.183-248.972-377.135-589.149-463.593-641.396-86.458 52.224-436.457 392.448-463.616 641.722 0 0-1.839 13.405-1.839 29.37 0 141.126 114.851 256 256 256 66.281 0 129.187-25.414 177.199-71.564l22.063-21.201-82.921-186.508 116.364-139.636-93.091-209.455 69.818-116.364-17.455 116.364 91.648 222.557-112.012 130.909 97.955 226.304c43.357 31.395 95.139 48.617 149.318 48.617 141.172 0 256-114.874 256-256 0.023-16.268-1.839-29.719-1.839-29.719z" />
<glyph unicode="&#xe936;" glyph-name="btc-circle" d="M512 960c-282.787 0-512-229.26-512-512 0-282.764 229.213-512 512-512 282.764 0 512 229.236 512 512 0 282.74-229.236 512-512 512zM512-17.455c-257.047 0-465.455 208.384-465.455 465.455 0 257.024 208.407 465.455 465.455 465.455 257.071 0 465.455-208.407 465.455-465.455 0-257.071-208.384-465.455-465.455-465.455zM599.087 572.486l15.29 59.625-37.376 9.053-14.918-58.042c-9.844 2.374-19.921 4.608-29.975 6.842l15.034 58.415-37.353 9.053-15.337-59.625c-8.145 1.792-16.105 3.561-23.878 5.446l0.047 0.186-51.549 12.497-9.961-38.749c0 0 27.718-6.191 27.136-6.586 15.151-3.654 17.897-13.405 17.431-21.085l-17.431-67.933c1.047-0.256 2.397-0.605 3.863-1.187-1.233 0.279-2.56 0.605-3.933 0.931l-24.46-95.139c-1.839-4.492-6.563-11.148-17.129-8.611 0.372-0.535-27.206 6.563-27.206 6.563l-18.548-41.519 48.663-11.776c9.053-2.211 17.92-4.515 26.647-6.679l-15.43-60.323 37.329-9.053 15.337 59.648c10.193-2.676 20.108-5.167 29.789-7.517l-15.267-59.345 37.399-9.053 15.476 60.183c63.767-11.706 111.709-6.982 131.887 48.966 16.268 45.103-0.815 71.098-34.374 88.041 24.46 5.469 42.868 21.062 47.779 53.295 6.749 44.009-27.764 67.7-74.985 83.479zM588.614 372.759c-11.567-45.079-89.74-20.713-115.107-14.592l20.55 79.919c25.321-6.167 106.636-18.316 94.557-65.327zM600.157 489.681c-10.519-41.030-75.613-20.154-96.698-15.034l18.572 72.448c21.132-5.12 89.111-14.639 78.127-57.414z" />
<glyph unicode="&#xe937;" glyph-name="btc-circles" d="M605.091 960c-134.865 0-254.487-64-331.101-162.956 25.786 8.471 52.643 14.476 80.221 18.339 66.188 60.532 154.089 97.792 250.88 97.792 205.498 0 372.084-166.586 372.084-372.084 0-96.791-37.26-184.692-97.815-250.857-3.863-27.578-9.868-54.458-18.316-80.244 98.979 76.614 162.956 196.236 162.956 331.101 0 231.354-187.555 418.909-418.909 418.909zM418.909 773.818c-231.354 0-418.909-187.578-418.909-418.909 0-231.354 187.555-418.909 418.909-418.909s418.909 187.555 418.909 418.909c0 231.331-187.555 418.909-418.909 418.909zM418.909-17.199c-205.498 0-372.084 166.609-372.084 372.108s166.586 372.084 372.084 372.084c205.498 0 372.084-166.586 372.084-372.084s-166.586-372.108-372.084-372.108zM475.671 451.747l12.055 46.336-29.393 7.052-11.706-45.126c-7.727 1.839-15.686 3.584-23.552 5.329l11.776 45.428-29.347 7.028-12.055-46.336c-6.377 1.42-12.66 2.769-18.781 4.259l0.023 0.14-40.495 9.728-7.82-30.161c0 0 21.807-4.794 21.341-5.097 11.892-2.863 14.057-10.426 13.684-16.431l-13.708-52.852c0.815-0.186 1.885-0.465 3.049-0.931-0.954 0.256-2.001 0.489-3.095 0.745l-19.223-74.007c-1.466-3.468-5.143-8.681-13.452-6.703 0.303-0.419-21.364 5.12-21.364 5.12l-14.592-32.303 38.237-9.193c7.145-1.676 14.080-3.468 20.945-5.167l-12.125-46.918 29.347-7.052 12.055 46.406c8.029-2.095 15.802-4.026 23.412-5.841l-12.009-46.173 29.393-7.028 12.148 46.825c50.106-9.1 87.761-5.423 103.633 38.121 12.777 35.049-0.628 55.273-26.996 68.445 19.2 4.259 33.652 16.384 37.516 41.425 5.329 34.257-21.807 52.666-58.903 64.931zM467.456 296.378c-9.1-35.049-70.493-16.128-90.438-11.357l16.128 62.115c19.945-4.724 83.782-14.173 74.31-50.758zM476.556 387.351c-8.262-31.907-59.415-15.709-76.009-11.729l14.639 56.367c16.57-3.98 70.004-11.404 61.37-44.637z" />
<glyph unicode="&#xe938;" glyph-name="btc-currency" d="M977.455 727.273h-930.909c-25.716 0-46.545-20.852-46.545-46.545v-465.455c0-25.693 20.829-46.545 46.545-46.545h930.909c25.693 0 46.545 20.852 46.545 46.545v465.455c0 25.693-20.852 46.545-46.545 46.545zM69.818 680.727c12.847 0 23.273-10.403 23.273-23.273s-10.426-23.273-23.273-23.273c-12.87 0-23.273 10.403-23.273 23.273 0 12.847 10.403 23.273 23.273 23.273zM69.818 215.273c-12.87 0-23.273 10.38-23.273 23.273 0 12.847 10.403 23.273 23.273 23.273 12.847 0 23.273-10.426 23.273-23.273 0-12.893-10.426-23.273-23.273-23.273zM954.182 215.273c-12.87 0-23.273 10.38-23.273 23.273 0 12.847 10.403 23.273 23.273 23.273 12.847 0 23.273-10.426 23.273-23.273 0-12.893-10.426-23.273-23.273-23.273zM977.455 304.081c-7.284 2.607-15.057 4.282-23.273 4.282-38.563 0-69.818-31.302-69.818-69.818 0-8.215 1.676-15.988 4.282-23.273h-753.292c2.607 7.284 4.282 15.057 4.282 23.273 0 38.516-31.279 69.818-69.818 69.818-8.215 0-15.965-1.676-23.273-4.282v287.814c7.308-2.63 15.057-4.259 23.273-4.259 38.54 0 69.818 31.255 69.818 69.818 0 8.215-1.676 15.965-4.282 23.273h753.268c-2.583-7.331-4.259-15.081-4.259-23.273 0-38.563 31.255-69.818 69.818-69.818 8.215 0 15.988 1.652 23.273 4.282v-287.837zM954.182 634.182c-12.87 0-23.273 10.403-23.273 23.273s10.403 23.273 23.273 23.273c12.847 0 23.273-10.403 23.273-23.273 0-12.893-10.426-23.273-23.273-23.273zM256 634.182h-46.545c-12.87 0-23.273-10.403-23.273-23.273s10.403-23.273 23.273-23.273h46.545c12.823 0 23.273 10.403 23.273 23.273 0 12.847-10.426 23.273-23.273 23.273zM814.545 308.364h-46.545c-12.87 0-23.273-10.403-23.273-23.273 0-12.893 10.403-23.273 23.273-23.273h46.545c12.847 0 23.273 10.38 23.273 23.273 0 12.87-10.426 23.273-23.273 23.273zM512 634.182c-102.842 0-186.182-83.363-186.182-186.182 0-102.842 83.34-186.182 186.182-186.182 102.819 0 186.182 83.34 186.182 186.182 0 102.796-83.363 186.182-186.182 186.182zM608.419 475.369c-3.188-21.481-15.011-31.86-30.697-35.514 21.574-11.287 32.535-28.649 22.086-58.694-12.986-37.306-43.799-40.448-84.806-32.628l-9.961-40.169-24.041 6.051 9.821 39.587c-6.237 1.513-12.591 3.212-19.13 5.004l-9.868-39.773-23.994 6.004 9.937 40.215c-5.609 1.466-11.334 3.002-17.152 4.468l-31.255 7.843 11.916 27.671c0 0 17.757-4.724 17.478-4.375 6.819-1.722 9.821 2.746 11.055 5.748l15.709 63.418c0.884-0.233 1.745-0.442 2.513-0.628-0.931 0.396-1.792 0.628-2.467 0.815l11.194 45.242c0.303 5.167-1.466 11.636-11.194 14.080 0.372 0.256-17.455 4.375-17.455 4.375l6.4 25.833 33.14-8.332v-0.14c4.98-1.21 10.1-2.42 15.337-3.607l9.868 39.727 23.994-6.051-9.658-38.935c6.447-1.466 12.963-2.956 19.27-4.585l9.565 38.703 24.064-6.028-9.868-39.727c30.348-10.519 52.55-26.252 48.198-55.599zM510.697 514.048l-11.985-48.291c13.568-3.421 55.436-17.292 62.208 10.031 7.052 28.509-36.655 34.839-50.223 38.26zM492.684 441.367l-13.172-53.248c16.268-4.073 66.537-20.317 73.984 9.728 7.75 31.325-44.521 39.424-60.812 43.52z" />
<glyph unicode="&#xe939;" glyph-name="btc-currency1" d="M209.455 773.818h605.091c12.87 0 23.273 10.403 23.273 23.273s-10.403 23.273-23.273 23.273h-605.091c-12.847 0-23.273-10.426-23.273-23.273 0-12.893 10.426-23.273 23.273-23.273zM116.364 680.727h791.273c12.87 0 23.273 10.403 23.273 23.273s-10.403 23.273-23.273 23.273h-791.273c-12.87 0-23.273-10.403-23.273-23.273 0-12.893 10.426-23.273 23.273-23.273zM510.697 420.957l-11.985-48.291c13.591-3.421 55.412-17.292 62.185 10.031 7.075 28.509-36.631 34.839-50.199 38.26zM977.455 634.182h-930.909c-25.693 0-46.545-20.852-46.545-46.545v-465.455c0-25.716 20.852-46.545 46.545-46.545h930.909c25.693 0 46.545 20.829 46.545 46.545v465.455c0 25.693-20.852 46.545-46.545 46.545zM69.818 587.636c12.87 0 23.273-10.403 23.273-23.273s-10.403-23.273-23.273-23.273-23.273 10.38-23.273 23.273c0 12.847 10.426 23.273 23.273 23.273zM69.818 122.182c-12.87 0-23.273 10.38-23.273 23.273 0 12.847 10.403 23.273 23.273 23.273s23.273-10.426 23.273-23.273c0-12.893-10.403-23.273-23.273-23.273zM954.182 122.182c-12.87 0-23.273 10.38-23.273 23.273 0 12.847 10.403 23.273 23.273 23.273s23.273-10.426 23.273-23.273c0-12.893-10.403-23.273-23.273-23.273zM977.455 210.991c-7.308 2.607-15.057 4.282-23.273 4.282-38.54 0-69.818-31.302-69.818-69.818 0-8.215 1.676-15.988 4.282-23.273h-753.268c2.583 7.284 4.259 15.057 4.259 23.273 0 38.516-31.279 69.818-69.818 69.818-8.215 0-15.965-1.676-23.273-4.282v287.837c7.331-2.653 15.081-4.282 23.273-4.282 38.54 0 69.818 31.255 69.818 69.818 0 8.215-1.676 15.965-4.282 23.273h753.268c-2.583-7.331-4.259-15.081-4.259-23.273 0-38.563 31.279-69.818 69.818-69.818 8.215 0 15.965 1.629 23.273 4.282v-287.837zM954.182 541.091c-12.87 0-23.273 10.38-23.273 23.273 0 12.87 10.403 23.273 23.273 23.273s23.273-10.403 23.273-23.273c0-12.893-10.403-23.273-23.273-23.273zM814.545 215.273h-46.545c-12.87 0-23.273-10.426-23.273-23.273 0-12.893 10.403-23.273 23.273-23.273h46.545c12.87 0 23.273 10.38 23.273 23.273 0 12.847-10.403 23.273-23.273 23.273zM256 541.091h-46.545c-12.87 0-23.273-10.403-23.273-23.273 0-12.893 10.403-23.273 23.273-23.273h46.545c12.847 0 23.273 10.38 23.273 23.273 0 12.87-10.403 23.273-23.273 23.273zM512 541.091c-102.819 0-186.182-83.363-186.182-186.182s83.363-186.182 186.182-186.182 186.182 83.363 186.182 186.182-83.363 186.182-186.182 186.182zM608.419 382.278c-3.165-21.481-15.011-31.86-30.673-35.514 21.551-11.287 32.535-28.625 22.063-58.671-12.986-37.329-43.799-40.471-84.806-32.652l-9.961-40.169-24.017 6.051 9.821 39.564c-6.26 1.536-12.614 3.235-19.153 5.027l-9.868-39.773-23.994 6.004 9.937 40.215c-5.609 1.466-11.311 3.002-17.129 4.468l-31.279 7.843 11.939 27.671c0 0 17.734-4.724 17.478-4.375 6.796-1.699 9.821 2.769 11.031 5.748l15.732 63.441c0.861-0.256 1.722-0.442 2.513-0.628-0.954 0.396-1.839 0.628-2.49 0.815l11.194 45.242c0.326 5.167-1.466 11.636-11.171 14.080 0.372 0.279-17.455 4.375-17.455 4.375l6.377 25.833 33.164-8.332-0.047-0.14c5.004-1.21 10.147-2.42 15.36-3.584l9.868 39.727 23.994-6.051-9.635-38.935c6.447-1.466 12.94-2.979 19.27-4.561l9.565 38.679 24.041-6.028-9.844-39.727c30.324-10.566 52.527-26.298 48.175-55.645zM492.684 348.276l-13.172-53.248c16.291-4.073 66.537-20.317 74.007 9.728 7.727 31.325-44.521 39.424-60.835 43.52z" />
<glyph unicode="&#xe93a;" glyph-name="btc-currency2" d="M209.455 541.091c-12.87 0-23.273-10.426-23.273-23.273 0-12.87 10.403-23.273 23.273-23.273s23.273 10.403 23.273 23.273c0 12.847-10.403 23.273-23.273 23.273zM405.015 372.666l-10.263-44.381c12.707-3.398 51.782-16.966 57.577 8.099 6.028 26.112-34.63 32.861-47.313 36.282zM791.273 634.182h-744.727c-25.693 0-46.545-20.852-46.545-46.545v-418.909c0-25.693 20.852-46.545 46.545-46.545h744.727c25.693 0 46.545 20.852 46.545 46.545v418.909c0 25.693-20.852 46.545-46.545 46.545zM69.818 587.636c12.87 0 23.273-10.426 23.273-23.273 0-12.87-10.403-23.273-23.273-23.273s-23.273 10.403-23.273 23.273c0 12.823 10.426 23.273 23.273 23.273zM69.818 168.727c-12.87 0-23.273 10.403-23.273 23.273 0 12.823 10.403 23.273 23.273 23.273s23.273-10.449 23.273-23.273c0-12.87-10.403-23.273-23.273-23.273zM768 168.727c-12.87 0-23.273 10.403-23.273 23.273 0 12.823 10.403 23.273 23.273 23.273s23.273-10.449 23.273-23.273c0-12.87-10.403-23.273-23.273-23.273zM791.273 257.536c-7.308 2.583-15.057 4.282-23.273 4.282-38.54 0-69.818-31.279-69.818-69.818 0-8.215 1.676-15.965 4.282-23.273h-567.087c2.583 7.308 4.259 15.057 4.259 23.273 0 38.54-31.279 69.818-69.818 69.818-8.215 0-15.965-1.699-23.273-4.282v241.292c7.331-2.63 15.081-4.282 23.273-4.282 38.54 0 69.818 31.232 69.818 69.818 0 8.215-1.676 15.965-4.282 23.273h567.087c-2.583-7.331-4.259-15.081-4.259-23.273 0-38.586 31.279-69.818 69.818-69.818 8.215 0 15.965 1.652 23.273 4.282v-241.292zM768 541.091c-12.87 0-23.273 10.403-23.273 23.273 0 12.847 10.403 23.273 23.273 23.273s23.273-10.426 23.273-23.273c0-12.87-10.403-23.273-23.273-23.273zM977.455 773.818h-744.727c-25.693 0-46.545-20.852-46.545-46.545v-23.273c0-12.87 10.403-23.273 23.273-23.273s23.273 10.403 23.273 23.273v23.273h744.727v-418.909h-69.818c-12.87 0-23.273-10.426-23.273-23.273 0-12.87 10.403-23.273 23.273-23.273h69.818c25.693 0 46.545 20.852 46.545 46.545v418.909c0 25.693-20.852 46.545-46.545 46.545zM419.049 433.222l-9.309-40.262c10.543-2.816 43.101-14.406 48.361 8.355 5.469 23.785-28.509 29.068-39.052 31.907zM628.364 261.818c-12.87 0-23.273-10.449-23.273-23.273 0-12.87 10.403-23.273 23.273-23.273s23.273 10.403 23.273 23.273c0 12.823-10.403 23.273-23.273 23.273zM418.909 541.091c-89.972 0-162.909-72.937-162.909-162.909 0-89.996 72.913-162.909 162.909-162.909s162.909 72.913 162.909 162.909c0 89.972-72.937 162.909-162.909 162.909zM495.034 400.989c-2.444-17.943-11.66-26.624-23.878-29.626 16.78-9.425 25.321-23.831 17.175-48.896-10.1-31.092-34.048-33.699-65.932-27.206l-7.773-33.443-18.688 5.027 7.633 32.977c-4.864 1.327-9.844 2.7-14.918 4.189l-7.68-33.14-18.665 5.027 7.727 33.466c-4.375 1.233-8.797 2.513-13.312 3.724l-24.343 6.54 9.263 23.087c0 0 13.801-3.956 13.615-3.677 5.306-1.443 7.633 2.304 8.564 4.817l12.218 52.829c0.675-0.14 1.35-0.349 1.955-0.489-0.745 0.326-1.42 0.489-1.932 0.652l8.727 37.725c0.209 4.305-1.164 9.681-8.704 11.729 0.279 0.233-13.591 3.654-13.591 3.654l4.98 21.504 25.833-6.935-0.047-0.070c3.887-1.047 7.889-2.048 11.962-3.049l7.657 33.117 18.665-5.027-7.471-32.465c5.027-1.257 10.077-2.467 14.988-3.817l7.447 32.279 18.711-5.050-7.657-33.117c23.575-8.727 40.844-21.9 37.469-46.336z" />
<glyph unicode="&#xe93b;" glyph-name="bullhorn" d="M930.909 656.919v232.727c0 38.563-31.255 69.818-69.818 69.818s-69.818-31.255-69.818-69.818v-17.594l-674.7-198.423c-6.935 4.073-14.871 6.563-23.482 6.563h-46.545c-25.693 0-46.545-20.852-46.545-46.545v-232.727c0-25.693 20.852-46.545 46.545-46.545h46.545c8.611 0 16.547 2.49 23.459 6.54l28.067-8.239 88.669-399.011 0.442 0.093c2.327-10.403 11.171-18.316 22.272-18.316h186.182c12.847 0 23.273 10.403 23.273 23.273 0 1.769-0.628 3.328-1.001 4.957l0.465 0.093-73.821 316.416 400.175-117.69v-17.594c0-38.54 31.255-69.818 69.818-69.818s69.818 31.279 69.818 69.818v232.727c51.409 0 93.091 41.681 93.091 93.091v93.091c0 51.433-41.681 93.114-93.091 93.114zM93.091 400.919h-46.545v232.727h46.545v-232.727zM412.858-17.99h-138.193l-10.333 46.545h137.681l10.845-46.545zM391.145 75.101h-137.169l-58.345 262.586 144.151-42.403 51.363-220.183zM791.273 210.991l-651.636 191.697v229.213l651.636 191.651v-612.561zM884.364 144.919c0-12.87-10.426-23.273-23.273-23.273s-23.273 10.403-23.273 23.273v744.727c0 12.847 10.426 23.273 23.273 23.273s23.273-10.426 23.273-23.273v-744.727zM977.455 470.737c0-25.693-20.852-46.545-46.545-46.545v186.182c25.693 0 46.545-20.852 46.545-46.545v-93.091z" />
<glyph unicode="&#xe93c;" glyph-name="bullhorn1" d="M884.364 656.919v232.727c0 38.563-31.255 69.818-69.818 69.818s-69.818-31.255-69.818-69.818v-17.873l-357.19-107.148-340.992-37.888c-25.693 0-46.545-20.852-46.545-46.545v-325.818c0-25.693 20.852-46.545 46.545-46.545l158.487-17.594 74.775-336.547 0.465 0.093c2.327-10.403 11.171-18.316 22.272-18.316h186.182c12.847 0 23.273 10.403 23.273 23.273 0 1.769-0.628 3.328-1.001 4.957l0.465 0.093-64.047 288.233 297.309-89.251v-17.873c0-38.54 31.255-69.818 69.818-69.818s69.818 31.279 69.818 69.818v232.727c77.103 0 139.636 62.534 139.636 139.636s-62.534 139.66-139.636 139.66zM46.545 354.374v93.091h116.364c12.847 0 23.273 10.403 23.273 23.273s-10.426 23.273-23.273 23.273h-116.364v46.545h69.818c12.847 0 23.273 10.403 23.273 23.273 0 12.847-10.426 23.273-23.273 23.273h-69.818v93.091l325.818 36.189v-398.243l-325.818 36.236zM300.521 75.101l-46.592 209.687 133.655-14.871 8.727-2.583 42.682-192.233h-138.473zM449.373 28.556l10.333-46.545h-138.496l-10.333 46.545h138.496zM744.727 211.363l-325.818 97.769v416.279l325.818 97.745v-611.793zM837.818 144.919c0-12.87-10.426-23.273-23.273-23.273s-23.273 10.403-23.273 23.273v744.727c0 12.847 10.426 23.273 23.273 23.273s23.273-10.426 23.273-23.273v-744.727zM884.364 424.192v186.182c51.409 0 93.091-41.681 93.091-93.091s-41.681-93.091-93.091-93.091z" />
<glyph unicode="&#xe93d;" glyph-name="bullhorn2" d="M930.909 587.101v256c0 38.563-31.255 69.818-69.818 69.818s-69.818-31.255-69.818-69.818v-19.037l-676.98-218.996c-6.377 3.258-13.521 5.306-21.201 5.306h-46.545c-25.693 0-46.545-20.852-46.545-46.545v-232.727c0-25.716 20.852-46.545 46.545-46.545h46.545c7.68 0 14.825 2.048 21.201 5.329l109.475-35.398-9.076-28.556c-15.616-48.989 11.45-101.353 60.416-116.945l243.945-77.638c48.989-15.639 101.353 11.45 116.945 60.463l8.448 26.554 146.828-47.5v-19.037c0-38.54 31.255-69.818 69.818-69.818s69.818 31.279 69.818 69.818v256c51.409 0 93.091 41.681 93.091 93.091v93.091c0 51.409-41.681 93.091-93.091 93.091zM93.091 331.101h-46.545v232.727h46.545v-232.727zM591.663 105.914c-7.796-24.506-33.978-38.051-58.461-30.278l-243.945 77.684c-24.506 7.773-38.028 33.955-30.231 58.461l9.030 28.369 332.148-107.45-8.541-26.787zM791.273 119.761l-651.683 210.828c0 0.186 0.047 0.326 0.047 0.512v232.727c0 0.163-0.047 0.326-0.047 0.489l651.683 210.828v-655.383zM884.364 51.828c0-12.87-10.426-23.273-23.273-23.273s-23.273 10.403-23.273 23.273v791.273c0 12.847 10.426 23.273 23.273 23.273s23.273-10.426 23.273-23.273v-791.273zM977.455 400.919c0-25.693-20.852-46.545-46.545-46.545v186.182c25.693 0 46.545-20.852 46.545-46.545v-93.091z" />
<glyph unicode="&#xe93e;" glyph-name="bullseye" d="M512.489 587.497c-77.103 0-139.636-62.511-139.636-139.636 0-77.103 62.534-139.636 139.636-139.636 77.149 0 139.636 62.534 139.636 139.636 0 77.149-62.487 139.636-139.636 139.636zM512.489 354.769c-51.409 0-93.091 41.681-93.091 93.091s41.681 93.091 93.091 93.091c51.409 0 93.091-41.681 93.091-93.091s-41.681-93.091-93.091-93.091zM512.489 773.679c-179.921 0-325.818-145.873-325.818-325.818s145.897-325.818 325.818-325.818c179.968 0 325.818 145.873 325.818 325.818s-145.85 325.818-325.818 325.818zM512.489 168.588c-154.228 0-279.273 125.044-279.273 279.273s125.044 279.273 279.273 279.273c154.228 0 279.273-125.044 279.273-279.273s-125.044-279.273-279.273-279.273zM867.095 79.057c96.861 93.161 157.417 223.791 157.417 368.803 0 282.764-229.236 512-512 512s-512-229.236-512-512c0-144.989 60.532-275.642 157.393-368.803l-57.484-103.471c-4.212-4.236-6.819-10.054-6.819-16.454 0-12.87 10.426-23.273 23.273-23.273 6.423 0 12.241 2.583 16.454 6.819 2.676 2.676 4.375 6.144 5.492 9.868l53.434 96.186c87.715-70.47 198.982-112.873 320.256-112.873s232.564 42.38 320.233 112.873l53.457-96.186c2.909-9.565 11.404-16.687 21.946-16.687 12.823 0 23.273 10.403 23.273 23.273 0 6.4-2.583 12.218-6.819 16.454l-57.507 103.471zM512.489-17.594c-257.071 0-465.455 208.384-465.455 465.455s208.384 465.455 465.455 465.455c257.047 0 465.455-208.384 465.455-465.455s-208.407-465.455-465.455-465.455z" />
<glyph unicode="&#xe93f;" glyph-name="calc" d="M325.818 447.465h93.091v93.091h-93.091v-93.091zM325.818 307.828h93.091v93.091h-93.091v-93.091zM325.818 168.192h93.091v93.091h-93.091v-93.091zM465.455 28.556h93.091v93.091h-93.091v-93.091zM325.818 28.556h93.091v93.091h-93.091v-93.091zM465.455 168.192h93.091v93.091h-93.091v-93.091zM186.182 307.828h93.091v93.091h-93.091v-93.091zM186.182 28.556h93.091v93.091h-93.091v-93.091zM186.182 447.465h93.091v93.091h-93.091v-93.091zM186.182 168.192h93.091v93.091h-93.091v-93.091zM744.727 28.556h93.091v372.364h-93.091v-372.364zM465.455 307.828h93.091v93.091h-93.091v-93.091zM186.182 587.101h651.636v279.273h-651.636v-279.273zM232.727 819.828h558.545v-186.182h-558.545v186.182zM605.091 447.465h93.091v93.091h-93.091v-93.091zM837.818 959.465h-651.636c-51.409 0-93.091-41.681-93.091-93.091v-837.818c0-51.409 41.681-93.091 93.091-93.091h651.636c51.409 0 93.091 41.681 93.091 93.091v837.818c0 51.409-41.681 93.091-93.091 93.091zM884.364 28.556c0-25.693-20.852-46.545-46.545-46.545h-651.636c-25.693 0-46.545 20.852-46.545 46.545v837.818c0 25.693 20.852 46.545 46.545 46.545h651.636c25.693 0 46.545-20.852 46.545-46.545v-837.818zM744.727 447.465h93.091v93.091h-93.091v-93.091zM605.091 307.828h93.091v93.091h-93.091v-93.091zM605.091 28.556h93.091v93.091h-93.091v-93.091zM465.455 447.465h93.091v93.091h-93.091v-93.091zM605.091 168.192h93.091v93.091h-93.091v-93.091z" />
<glyph unicode="&#xe940;" glyph-name="calendar1" d="M628.364 331.636h-93.091v-93.091h93.091v93.091zM628.364 494.545h-93.091v-93.091h93.091v93.091zM628.364 168.727h-93.091v-93.091h93.091v93.091zM768 494.545h-93.091v-93.091h93.091v93.091zM907.636 494.545h-93.091v-93.091h93.091v93.091zM768 331.636h-93.091v-93.091h93.091v93.091zM907.636 331.636h-93.091v-93.091h93.091v93.091zM488.727 331.636h-93.091v-93.091h93.091v93.091zM488.727 494.545h-93.091v-93.091h93.091v93.091zM488.727 168.727h-93.091v-93.091h93.091v93.091zM209.455 331.636h-93.091v-93.091h93.091v93.091zM209.455 494.545h-93.091v-93.091h93.091v93.091zM930.909 866.909h-93.091v69.818c0 12.847-10.403 23.273-23.273 23.273s-23.273-10.426-23.273-23.273v-69.818h-558.545v69.818c0 12.847-10.403 23.273-23.273 23.273s-23.273-10.426-23.273-23.273v-69.818h-93.091c-51.409 0-93.091-41.681-93.091-93.114v-744.704c0-51.409 41.681-93.091 93.091-93.091h837.818c51.409 0 93.091 41.681 93.091 93.091v744.704c0 51.433-41.681 93.114-93.091 93.114zM977.455 29.091c0-25.693-20.852-46.545-46.545-46.545h-837.818c-25.693 0-46.545 20.852-46.545 46.545v558.545h930.909v-558.545zM977.455 634.182h-930.909v139.613c0 25.716 20.852 46.569 46.545 46.569h93.091v-69.818c0-12.87 10.403-23.273 23.273-23.273s23.273 10.403 23.273 23.273v69.818h558.545v-69.818c0-12.87 10.403-23.273 23.273-23.273s23.273 10.403 23.273 23.273v69.818h93.091c25.693 0 46.545-20.852 46.545-46.569v-139.613zM209.455 168.727h-93.091v-93.091h93.091v93.091zM349.091 494.545h-93.091v-93.091h93.091v93.091zM349.091 168.727h-93.091v-93.091h93.091v93.091zM349.091 331.636h-93.091v-93.091h93.091v93.091z" />
<glyph unicode="&#xe941;" glyph-name="calendar2" d="M930.909 866.909h-93.091v69.818c0 12.847-10.403 23.273-23.273 23.273s-23.273-10.426-23.273-23.273v-69.818h-558.545v69.818c0 12.847-10.403 23.273-23.273 23.273s-23.273-10.426-23.273-23.273v-69.818h-93.091c-51.409 0-93.091-41.681-93.091-93.114v-744.704c0-51.409 41.681-93.091 93.091-93.091h837.818c51.409 0 93.091 41.681 93.091 93.091v744.704c0 51.433-41.681 93.114-93.091 93.114zM977.455 29.091c0-25.716-20.852-46.545-46.545-46.545h-837.818c-25.693 0-46.545 20.829-46.545 46.545v558.545h930.909v-558.545zM977.455 634.182h-930.909v139.613c0 25.716 20.852 46.569 46.545 46.569h93.091v-69.818c0-12.87 10.403-23.273 23.273-23.273s23.273 10.403 23.273 23.273v69.818h558.545v-69.818c0-12.87 10.403-23.273 23.273-23.273s23.273 10.403 23.273 23.273v69.818h93.091c25.693 0 46.545-20.852 46.545-46.569v-139.613zM675.887 99.491h43.52v373.923h-33.28c-2.42-14.057-6.842-25.647-13.312-34.816-6.493-9.123-14.406-16.314-23.808-21.597-9.379-5.283-19.875-8.89-31.465-10.799-11.636-1.955-23.599-2.909-35.863-2.909v-35.863h94.208v-267.939zM454.144 151.994c-7.191-6.191-15.546-10.915-25.088-14.22-9.542-3.375-19.642-5.027-30.208-5.027-24.925 0-43.869 7.657-56.832 22.924s-19.805 35.095-20.48 59.322h-43.52c-0.326-19.316 2.327-36.538 7.959-51.689 5.632-15.081 13.731-27.857 24.32-38.237 10.543-10.356 23.366-18.176 38.4-23.459 15.011-5.283 31.721-7.913 50.153-7.913 17.059 0 33.21 2.374 48.384 7.121s28.416 11.869 39.68 21.364 20.224 21.341 26.857 35.561c6.679 14.266 10.007 30.673 10.007 49.315 0 22.505-5.353 42.031-16.128 58.577-10.752 16.5-27.229 27.229-49.408 32.163v1.047c14.336 6.679 26.275 16.547 35.84 29.556s14.336 27.904 14.336 44.823c0 17.222-2.816 32.186-8.448 44.823-5.632 12.66-13.405 22.993-23.273 31.092-9.914 8.099-21.62 14.173-35.095 18.223-13.498 4.049-28.090 6.051-43.776 6.051-18.083 0-34.048-2.956-47.872-8.96-13.824-5.981-25.367-14.22-34.56-24.762s-16.291-23.226-21.248-38.004c-4.957-14.755-7.773-31.116-8.448-49.036h43.52c0 10.915 1.35 21.271 4.119 31.116 2.723 9.868 6.912 18.479 12.544 25.833 5.609 7.401 12.777 13.289 21.504 17.687 8.681 4.399 18.851 6.586 30.464 6.586 18.432 0 33.792-5.004 46.080-15.034 12.265-10.031 18.409-25.041 18.409-45.079 0-9.868-1.862-18.665-5.609-26.368-3.77-7.773-8.797-14.173-15.104-19.27s-13.661-8.96-21.993-11.636c-8.378-2.607-17.175-3.956-26.391-3.956h-14.336c-1.373 0-2.909 0.186-4.585 0.559v-37.981c8.192 1.047 16.896 1.583 26.089 1.583 10.938 0 21.085-1.489 30.487-4.492s17.478-7.54 24.32-13.731c6.842-6.167 12.288-13.684 16.384-22.668 4.096-8.96 6.144-19.27 6.144-30.836 0-11.241-2.141-21.364-6.377-30.324-4.352-8.913-10.054-16.477-17.222-22.644z" />
<glyph unicode="&#xe942;" glyph-name="camera" d="M395.636 726.737h232.727c12.87 0 23.273 10.403 23.273 23.273 0 12.847-10.403 23.273-23.273 23.273h-232.727c-12.87 0-23.273-10.426-23.273-23.273 0-12.87 10.403-23.273 23.273-23.273zM512 540.556c-77.103 0-139.636-62.534-139.636-139.636s62.534-139.636 139.636-139.636c77.103 0 139.636 62.557 139.636 139.636 0 77.126-62.534 139.636-139.636 139.636zM512 307.828c-51.409 0-93.091 41.681-93.091 93.091s41.681 93.091 93.091 93.091 93.091-41.681 93.091-93.091c0-51.409-41.681-93.091-93.091-93.091zM512 633.647c-128.535 0-232.727-104.215-232.727-232.727 0-128.535 104.192-232.727 232.727-232.727s232.727 104.192 232.727 232.727c0 128.535-104.192 232.727-232.727 232.727zM512 214.737c-102.819 0-186.182 83.363-186.182 186.182s83.363 186.182 186.182 186.182 186.182-83.363 186.182-186.182c0-102.819-83.363-186.182-186.182-186.182zM861.091 494.010c-12.87 0-23.273-10.426-23.273-23.273 0-12.893 10.403-23.273 23.273-23.273s23.273 10.38 23.273 23.273c0 12.847-10.403 23.273-23.273 23.273zM861.091 680.192c-38.54 0-69.818-31.279-69.818-69.818 0-38.563 31.279-69.818 69.818-69.818s69.818 31.255 69.818 69.818c0 38.54-31.279 69.818-69.818 69.818zM861.091 587.101c-12.87 0-23.273 10.403-23.273 23.273 0 12.847 10.403 23.273 23.273 23.273s23.273-10.426 23.273-23.273c0-12.87-10.403-23.273-23.273-23.273zM930.909 773.283h-93.091c-69.818 0-69.818 93.091-162.909 93.091h-325.818c-93.091 0-93.091-93.091-162.909-93.091h-93.091c-51.409 0-93.091-41.681-93.091-93.091v-558.545c0-51.409 41.681-93.091 93.091-93.091h837.818c51.409 0 93.091 41.681 93.091 93.091v558.545c0 51.409-41.681 93.091-93.091 93.091zM977.455 307.828h-202.403c-5.772-16.268-12.916-31.814-21.434-46.545h223.837v-139.636c0-25.693-20.852-46.545-46.545-46.545h-837.818c-25.693 0-46.545 20.852-46.545 46.545v139.636h223.86c-8.541 14.732-15.686 30.278-21.457 46.545h-202.403v372.364c0 25.693 20.852 46.545 46.545 46.545h93.091c93.091 0 93.091 93.091 162.909 93.091h325.818c69.818 0 69.818-93.091 162.909-93.091h93.091c25.693 0 46.545-20.852 46.545-46.545v-372.364z" />
<glyph unicode="&#xe943;" glyph-name="camera1" d="M418.909 354.374c-51.409 0-93.091-41.681-93.091-93.091s41.681-93.091 93.091-93.091 93.091 41.681 93.091 93.091-41.681 93.091-93.091 93.091zM418.909 214.737c-25.693 0-46.545 20.852-46.545 46.545s20.852 46.545 46.545 46.545 46.545-20.852 46.545-46.545-20.852-46.545-46.545-46.545zM418.909 447.465c-102.819 0-186.182-83.386-186.182-186.182s83.363-186.182 186.182-186.182 186.182 83.363 186.182 186.182-83.363 186.182-186.182 186.182zM418.909 121.647c-77.103 0-139.636 62.511-139.636 139.636s62.534 139.636 139.636 139.636c77.126 0 139.636-62.511 139.636-139.636s-62.511-139.636-139.636-139.636zM744.727 540.556h-93.091c-69.818 0-69.818 93.091-162.909 93.091h-139.636c-93.091 0-93.091-93.091-162.909-93.091h-93.091c-51.409 0-93.091-41.681-93.091-93.091v-418.909c0-51.409 41.681-93.091 93.091-93.091h651.636c51.409 0 93.091 41.681 93.091 93.091v418.909c0 51.409-41.681 93.091-93.091 93.091zM791.273 28.556c0-25.693-20.852-46.545-46.545-46.545h-651.636c-25.693 0-46.545 20.852-46.545 46.545v418.909c0 25.693 20.852 46.545 46.545 46.545h93.091c93.091 0 93.091 93.091 162.909 93.091h139.636c69.818 0 69.818-93.091 162.909-93.091h93.091c25.693 0 46.545-20.852 46.545-46.545v-418.909zM698.182 307.828c-12.87 0-23.273-10.403-23.273-23.273s10.403-23.273 23.273-23.273 23.273 10.403 23.273 23.273-10.403 23.273-23.273 23.273zM977.455 959.465h-744.727c-25.693 0-46.545-20.852-46.545-46.545v-232.727c0-12.87 10.403-23.273 23.273-23.273s23.273 10.403 23.273 23.273v232.727h744.727v-558.545h-69.818c-12.87 0-23.273-10.403-23.273-23.273s10.403-23.273 23.273-23.273h69.818v-139.636h-69.818c-12.87 0-23.273-10.403-23.273-23.273s10.403-23.273 23.273-23.273h69.818c25.693 0 46.545 20.829 46.545 46.545v744.727c0 25.693-20.852 46.545-46.545 46.545zM698.182 447.465c-25.693 0-46.545-20.852-46.545-46.545s20.852-46.545 46.545-46.545 46.545 20.852 46.545 46.545c0 25.693-20.852 46.545-46.545 46.545z" />
<glyph unicode="&#xe944;" glyph-name="camera2" d="M698.182 307.828c-12.847 0-23.273-10.403-23.273-23.273s10.426-23.273 23.273-23.273 23.273 10.403 23.273 23.273-10.426 23.273-23.273 23.273zM698.182 447.465c-25.693 0-46.545-20.852-46.545-46.545s20.852-46.545 46.545-46.545 46.545 20.852 46.545 46.545c0 25.716-20.852 46.545-46.545 46.545zM744.727 540.556h-93.091c-69.818 0-69.818 93.091-162.909 93.091h-139.636c-93.091 0-93.091-93.091-162.909-93.091h-93.091c-51.409 0-93.091-41.681-93.091-93.091v-418.909c0-51.409 41.681-93.091 93.091-93.091h651.636c51.409 0 93.091 41.681 93.091 93.091v418.909c0 51.409-41.681 93.091-93.091 93.091zM791.273 28.556c0-25.693-20.852-46.545-46.545-46.545h-651.636c-25.693 0-46.545 20.852-46.545 46.545v418.909c0 25.693 20.852 46.545 46.545 46.545h93.091c93.091 0 93.091 93.091 162.909 93.091h139.636c69.818 0 69.818-93.091 162.909-93.091h93.091c25.693 0 46.545-20.852 46.545-46.545v-418.909zM418.909 354.374c-51.409 0-93.091-41.681-93.091-93.091s41.681-93.091 93.091-93.091 93.091 41.681 93.091 93.091-41.681 93.091-93.091 93.091zM418.909 214.737c-25.693 0-46.545 20.852-46.545 46.545 0 25.716 20.852 46.545 46.545 46.545s46.545-20.829 46.545-46.545c0-25.693-20.852-46.545-46.545-46.545zM418.909 447.465c-102.842 0-186.182-83.386-186.182-186.182s83.34-186.182 186.182-186.182 186.182 83.363 186.182 186.182-83.34 186.182-186.182 186.182zM418.909 121.647c-77.126 0-139.636 62.557-139.636 139.636 0 77.126 62.511 139.636 139.636 139.636s139.636-62.511 139.636-139.636c0-77.103-62.511-139.636-139.636-139.636zM884.364 726.737h46.545v46.545h-46.545v-46.545zM930.909 866.374h-46.545v-46.545h46.545v46.545zM884.364 214.737h46.545v46.545h-46.545v-46.545zM884.364 633.647h46.545v46.545h-46.545v-46.545zM930.909 447.465h-46.545v-46.545h46.545v46.545zM977.455 959.465h-744.727c-25.693 0-46.545-20.852-46.545-46.545v-232.727c0-12.87 10.426-23.273 23.273-23.273s23.273 10.403 23.273 23.273v186.182c0 25.693 20.852 46.545 46.545 46.545h93.091v-209.455c0-12.87 10.426-23.273 23.273-23.273s23.273 10.403 23.273 23.273v209.455h372.364v-302.545c0-12.87 10.426-23.273 23.273-23.273s23.273 10.403 23.273 23.273v302.545h93.091c25.693 0 46.545-20.852 46.545-46.545v-302.545h-69.818c-12.847 0-23.273-10.426-23.273-23.273 0-12.87 10.426-23.273 23.273-23.273h69.818v-302.545c0-25.693-20.829-46.545-46.545-46.545h-23.273c-12.847 0-23.273-10.403-23.273-23.273s10.426-23.273 23.273-23.273v0h69.818c25.693 0 46.545 20.852 46.545 46.545v744.727c0 25.716-20.852 46.545-46.545 46.545zM325.818 866.374h-46.545v-46.545h46.545v46.545zM884.364 307.828h46.545v46.545h-46.545v-46.545zM279.273 726.737h46.545v46.545h-46.545v-46.545z" />
<glyph unicode="&#xe945;" glyph-name="camera3" d="M512 447.465c-102.819 0-186.182-83.386-186.182-186.182s83.363-186.182 186.182-186.182 186.182 83.363 186.182 186.182-83.363 186.182-186.182 186.182zM512 121.647c-77.126 0-139.636 62.511-139.636 139.636s62.511 139.636 139.636 139.636 139.636-62.511 139.636-139.636-62.511-139.636-139.636-139.636zM977.455 959.465h-930.909c-25.693 0-46.545-20.852-46.545-46.545v-698.182c0-25.716 20.852-46.545 46.545-46.545h46.545v-139.636c0-51.409 41.681-93.091 93.091-93.091h651.636c51.409 0 93.091 41.681 93.091 93.091v139.636h46.545c25.693 0 46.545 20.829 46.545 46.545v698.182c0 25.693-20.852 46.545-46.545 46.545zM884.364 28.556c0-25.693-20.852-46.545-46.545-46.545h-651.636c-25.693 0-46.545 20.852-46.545 46.545v418.909c0 25.693 20.852 46.545 46.545 46.545h93.091c93.091 0 93.091 93.091 162.909 93.091h139.636c69.818 0 69.818-93.091 162.909-93.091h93.091c25.693 0 46.545-20.852 46.545-46.545v-418.909zM977.455 214.737h-46.545v232.727c0 51.409-41.681 93.091-93.091 93.091h-93.091c-69.818 0-69.818 93.091-162.909 93.091h-139.636c-93.091 0-93.091-93.091-162.909-93.091h-93.091c-51.409 0-93.091-41.681-93.091-93.091v-232.727h-46.545v698.182h930.909v-698.182zM193.001 593.92c4.212-4.259 10.031-6.819 16.454-6.819 12.847 0 23.273 10.403 23.273 23.273 0 6.377-2.607 12.195-6.819 16.454l-53.364 53.364h176.547c12.847 0 23.273 10.403 23.273 23.273 0 12.847-10.426 23.273-23.273 23.273h-176.547l53.364 53.341c4.212 4.236 6.819 10.054 6.819 16.477 0 12.847-10.426 23.273-23.273 23.273-6.423 0-12.241-2.607-16.454-6.819l-93.091-93.091c-4.212-4.259-6.819-10.077-6.819-16.454 0-6.423 2.607-12.241 6.819-16.477l93.091-93.068zM512 354.374c-51.409 0-93.091-41.681-93.091-93.091s41.681-93.091 93.091-93.091 93.091 41.681 93.091 93.091-41.681 93.091-93.091 93.091zM512 214.737c-25.693 0-46.545 20.852-46.545 46.545s20.852 46.545 46.545 46.545 46.545-20.852 46.545-46.545-20.852-46.545-46.545-46.545zM674.909 680.192h176.547l-53.364-53.364c-4.236-4.259-6.819-10.077-6.819-16.454 0-12.87 10.426-23.273 23.273-23.273 6.4 0 12.218 2.56 16.454 6.819l93.091 93.068c4.236 4.236 6.819 10.054 6.819 16.477 0 6.377-2.583 12.195-6.819 16.454l-93.091 93.091c-4.236 4.212-10.054 6.819-16.454 6.819-12.847 0-23.273-10.426-23.273-23.273 0-6.423 2.583-12.241 6.819-16.477l53.364-53.341h-176.547c-12.847 0-23.273-10.426-23.273-23.273 0-12.87 10.426-23.273 23.273-23.273zM791.273 447.465c-25.693 0-46.545-20.852-46.545-46.545 0-25.716 20.852-46.545 46.545-46.545s46.545 20.829 46.545 46.545c0 25.693-20.852 46.545-46.545 46.545zM791.273 307.828c-12.847 0-23.273-10.403-23.273-23.273s10.426-23.273 23.273-23.273 23.273 10.403 23.273 23.273-10.426 23.273-23.273 23.273z" />
<glyph unicode="&#xe946;" glyph-name="camera4" d="M418.909 447.465c-102.819 0-186.182-83.386-186.182-186.182s83.363-186.182 186.182-186.182 186.182 83.363 186.182 186.182-83.363 186.182-186.182 186.182zM418.909 121.647c-77.126 0-139.636 62.511-139.636 139.636s62.511 139.636 139.636 139.636 139.636-62.511 139.636-139.636-62.511-139.636-139.636-139.636zM698.182 307.828c-12.847 0-23.273-10.403-23.273-23.273s10.426-23.273 23.273-23.273 23.273 10.403 23.273 23.273-10.426 23.273-23.273 23.273zM698.182 447.465c-25.693 0-46.545-20.852-46.545-46.545 0-25.716 20.852-46.545 46.545-46.545s46.545 20.829 46.545 46.545c0 25.693-20.852 46.545-46.545 46.545zM418.909 354.374c-51.409 0-93.091-41.681-93.091-93.091s41.681-93.091 93.091-93.091 93.091 41.681 93.091 93.091-41.681 93.091-93.091 93.091zM418.909 214.737c-25.693 0-46.545 20.852-46.545 46.545s20.852 46.545 46.545 46.545 46.545-20.852 46.545-46.545-20.852-46.545-46.545-46.545zM907.636 610.374c0 12.847-10.426 23.273-23.273 23.273s-23.273-10.426-23.273-23.273c0-12.87 10.426-23.273 23.273-23.273s23.273 10.403 23.273 23.273zM930.909 726.737c0 25.693-20.852 46.545-46.545 46.545s-46.545-20.852-46.545-46.545 20.852-46.545 46.545-46.545 46.545 20.876 46.545 46.545zM744.727 540.556h-93.091c-69.818 0-69.818 93.091-162.909 93.091h-139.636c-93.091 0-93.091-93.091-162.909-93.091h-93.091c-51.409 0-93.091-41.681-93.091-93.091v-418.909c0-51.409 41.681-93.091 93.091-93.091h651.636c51.409 0 93.091 41.681 93.091 93.091v418.909c0 51.409-41.681 93.091-93.091 93.091zM791.273 28.556c0-25.693-20.852-46.545-46.545-46.545h-651.636c-25.693 0-46.545 20.852-46.545 46.545v418.909c0 25.693 20.852 46.545 46.545 46.545h93.091c93.091 0 93.091 93.091 162.909 93.091h139.636c69.818 0 69.818-93.091 162.909-93.091h93.091c25.693 0 46.545-20.852 46.545-46.545v-418.909zM930.909 866.374h-93.091c-69.818 0-69.818 93.091-162.909 93.091h-139.636c-93.091 0-93.091-93.091-162.909-93.091h-93.091c-51.409 0-93.091-41.681-93.091-93.091v-186.182c9.356 0 14.639 4.049 33.187 25.46 4.003 4.631 8.541 9.681 13.359 14.825v145.897c0 25.693 20.852 46.545 46.545 46.545h93.091c93.091 0 93.091 93.091 162.909 93.091h139.636c69.818 0 69.818-93.091 162.909-93.091h93.091c25.693 0 46.545-20.852 46.545-46.545v-418.909c0-25.716-20.852-46.545-46.545-46.545h-46.545v-46.545h46.545c51.409 0 93.091 41.681 93.091 93.091v418.909c0 51.409-41.681 93.091-93.091 93.091zM555.427 665.577c18.292-8.89 32.559-20.759 44.241-32.489 1.792 0.186 3.537 0.535 5.399 0.535 25.693 0 46.545-20.852 46.545-46.545h46.545c0 51.409-41.681 93.091-93.091 93.091-18.292 0.023-35.258-5.446-49.641-14.592zM744.727 587.101c16.244 0 31.581-3.351 46.127-8.448 0.093 2.816 0.419 5.585 0.419 8.448 0 102.819-83.363 186.182-186.182 186.182-68.887 0-128.861-37.492-161.071-93.091h44.707c4.375 0 8.192-0.605 12.218-0.884 25.6 28.858 62.534 47.43 104.145 47.43 77.103 0 139.636-62.511 139.636-139.636z" />
<glyph unicode="&#xe947;" glyph-name="capsule" d="M838.307 634.042h-651.636c-102.842 0-186.182-83.363-186.182-186.182s83.34-186.182 186.182-186.182h651.636c102.819 0 186.182 83.363 186.182 186.182s-83.363 186.182-186.182 186.182zM186.671 447.86c-25.693 0-46.545 20.829-46.545 46.545 0 25.693 20.852 46.545 46.545 46.545s46.545-20.852 46.545-46.545c0-25.716-20.852-46.545-46.545-46.545zM303.034 401.315c-12.847 0-23.273 10.403-23.273 23.273s10.426 23.273 23.273 23.273 23.273-10.403 23.273-23.273-10.426-23.273-23.273-23.273zM838.307 308.224h-302.545v279.273h302.545c77.126 0 139.636-62.557 139.636-139.636 0-77.103-62.487-139.636-139.636-139.636z" />
<glyph unicode="&#xe948;" glyph-name="card" d="M768 215.273h93.091c12.847 0 23.273 10.38 23.273 23.273v93.091c0 12.847-10.426 23.273-23.273 23.273h-93.091c-12.847 0-23.273-10.426-23.273-23.273v-93.091c0-12.893 10.426-23.273 23.273-23.273zM977.455 820.364h-930.909c-25.693 0-46.545-20.876-46.545-46.545v-651.636c0-25.693 20.852-46.545 46.545-46.545h930.909c25.693 0 46.545 20.852 46.545 46.545v651.636c0 25.67-20.852 46.545-46.545 46.545zM977.455 122.182h-930.909v372.364h930.909v-372.364zM977.455 680.727h-930.909v93.091h930.909v-93.091zM162.909 308.364h418.909c12.847 0 23.273 10.38 23.273 23.273 0 12.847-10.426 23.273-23.273 23.273h-418.909c-12.847 0-23.273-10.426-23.273-23.273 0-12.893 10.449-23.273 23.273-23.273zM162.909 215.273h325.818c12.847 0 23.273 10.38 23.273 23.273 0 12.847-10.426 23.273-23.273 23.273h-325.818c-12.847 0-23.273-10.426-23.273-23.273 0-12.893 10.449-23.273 23.273-23.273z" />
<glyph unicode="&#xe949;" glyph-name="cards" d="M581.818 168.727h93.091c12.847 0 23.273 10.38 23.273 23.273v93.091c0 12.87-10.426 23.273-23.273 23.273h-93.091c-12.847 0-23.273-10.403-23.273-23.273v-93.091c0-12.893 10.426-23.273 23.273-23.273zM162.909 261.818h279.273c12.847 0 23.273 10.38 23.273 23.273 0 12.87-10.426 23.273-23.273 23.273h-279.273c-12.847 0-23.273-10.403-23.273-23.273 0-12.893 10.449-23.273 23.273-23.273zM162.909 168.727h186.182c12.847 0 23.273 10.38 23.273 23.273 0 12.847-10.426 23.273-23.273 23.273h-186.182c-12.847 0-23.273-10.426-23.273-23.273 0-12.893 10.449-23.273 23.273-23.273zM791.273 680.727h-744.727c-25.693 0-46.545-20.852-46.545-46.545v-558.545c0-25.693 20.852-46.545 46.545-46.545h744.727c25.693 0 46.545 20.852 46.545 46.545v558.545c0 25.67-20.852 46.545-46.545 46.545zM791.273 75.636h-744.727v325.818h744.727v-325.818zM791.273 541.091h-744.727v93.091h744.727v-93.091zM977.455 866.909h-744.727c-25.693 0-46.545-20.876-46.545-46.545v-69.818c0-12.87 10.426-23.273 23.273-23.273s23.273 10.403 23.273 23.273v69.818h744.727v-558.545h-69.818c-12.847 0-23.273-10.426-23.273-23.273 0-12.893 10.426-23.273 23.273-23.273h69.818c25.693 0 46.545 20.852 46.545 46.545v558.545c0 25.67-20.852 46.545-46.545 46.545z" />
<glyph unicode="&#xe94a;" glyph-name="cd" d="M512.489 634.042c-102.819 0-186.182-83.363-186.182-186.182s83.363-186.182 186.182-186.182c102.819 0 186.182 83.363 186.182 186.182s-83.363 186.182-186.182 186.182zM512.489 308.224c-77.103 0-139.636 62.534-139.636 139.636 0 77.126 62.534 139.636 139.636 139.636 77.149 0 139.636-62.511 139.636-139.636 0-77.103-62.487-139.636-139.636-139.636zM512.489 959.86c-282.764 0-512-229.236-512-512s229.236-512 512-512c282.787 0 512 229.236 512 512s-229.213 512-512 512zM512.489-17.594c-257.047 0-465.455 208.407-465.455 465.455 0 257.071 208.407 465.455 465.455 465.455s465.455-208.384 465.455-465.455c0-257.047-208.407-465.455-465.455-465.455z" />
</font>
</defs>
</svg>
